%FSLAX46Y46*%
%MOMM*%
%AMPS13*
1,1,1.850000,0.000000,0.000000*
%
%ADD13PS13*%
%AMPS12*
1,1,1.900000,0.000000,0.000000*
%
%ADD12PS12*%
%AMPS15*
1,1,0.500000,0.000000,0.000000*
%
%ADD15PS15*%
%AMPS14*
1,1,3.500000,0.000000,0.000000*
%
%ADD14PS14*%
%AMPS11*
1,1,0.700000,-1.750000,-0.850000*
1,1,0.700000,1.750000,0.850000*
1,1,0.700000,-1.750000,0.850000*
1,1,0.700000,1.750000,-0.850000*
21,1,2.400000,3.500000,0.000000,0.000000,90.000000*
21,1,1.700000,4.200000,0.000000,0.000000,90.000000*
%
%ADD11PS11*%
%AMPS10*
1,1,0.700000,1.750000,0.850000*
1,1,0.700000,-1.750000,-0.850000*
1,1,0.700000,1.750000,-0.850000*
1,1,0.700000,-1.750000,0.850000*
21,1,2.400000,3.500000,0.000000,0.000000,270.000000*
21,1,1.700000,4.200000,0.000000,0.000000,270.000000*
%
%ADD10PS10*%
G01*
%LPD*%
G01*
%LPD*%
G75*
D10*
X-31550000Y6910000D03*
D10*
X-31550000Y-710000D03*
D11*
X-23930000Y4370000D03*
D10*
X-31550000Y4370000D03*
D11*
X-23930000Y6910000D03*
D11*
X-23930000Y-710000D03*
D10*
X-31550000Y1830000D03*
D11*
X-23930000Y1830000D03*
D12*
X49500000Y-1800000D03*
D12*
X49500000Y-9420000D03*
D12*
X49500000Y-17040000D03*
D12*
X49500000Y5820000D03*
D12*
X49500000Y3280000D03*
D12*
X49500000Y-4340000D03*
D12*
X49500000Y-14500000D03*
D12*
X49500000Y-11960000D03*
D12*
X49500000Y740000D03*
D12*
X49500000Y-6880000D03*
D13*
X91050000Y-6880000D03*
D13*
X91050000Y-1800000D03*
D13*
X55490000Y4550000D03*
D13*
X52950000Y740000D03*
D13*
X52950000Y4550000D03*
D13*
X91050000Y740000D03*
D14*
X62000000Y-29000000D03*
D14*
X62000000Y29000000D03*
D13*
X91050000Y-4340000D03*
D13*
X52950000Y-1800000D03*
D13*
X52950000Y-4340000D03*
D13*
X52950000Y-6880000D03*
D14*
X82000000Y29000000D03*
D14*
X82000000Y-29000000D03*
D15*
X-35500000Y-710000D03*
D15*
X34610000Y-14500000D03*
D15*
X-35500000Y4370000D03*
D15*
X39690000Y-9420000D03*
D15*
X-35500000Y6910000D03*
D15*
X32070000Y-17040000D03*
D15*
X37150000Y-11960000D03*
D15*
X-35500000Y1830000D03*
M02*
