%FSLAX46Y46*%
%MOMM*%
%ADD10C,0.150000*%
G01*
%LPD*%
G01*
%LPD*%
D10*
X88357144Y-17857142D02*
X88428568Y-18000000D01*
D10*
X88214288Y-17714286D02*
X88357144Y-17857142D01*
D10*
X88000000Y-17714286D02*
X88214288Y-17714286D01*
D10*
X87928568Y-17785714D02*
X88000000Y-17714286D01*
D10*
X87928568Y-17928572D02*
X87928568Y-17785714D01*
D10*
X88000000Y-18214286D02*
X87928568Y-17928572D01*
D10*
X88142856Y-18714286D02*
X88000000Y-18214286D01*
D10*
X88000000Y-17785714D02*
X88071432Y-17714286D01*
D10*
X88000000Y-17928572D02*
X88000000Y-17785714D01*
D10*
X88071432Y-18214286D02*
X88000000Y-17928572D01*
D10*
X88214288Y-18714286D02*
X88071432Y-18214286D01*
D10*
X87857144Y-17928572D02*
X88000000Y-18214286D01*
D10*
X87714288Y-17785714D02*
X87857144Y-17928572D01*
D10*
X87571432Y-17714286D02*
X87714288Y-17785714D01*
D10*
X87428568Y-17714286D02*
X87571432Y-17714286D01*
D10*
X87357144Y-17785714D02*
X87428568Y-17714286D01*
D10*
X87357144Y-17857142D02*
X87357144Y-17785714D01*
D10*
X87428568Y-17928572D02*
X87357144Y-17857142D01*
D10*
X87500000Y-17857142D02*
X87428568Y-17928572D01*
D10*
X87428568Y-17785714D02*
X87500000Y-17857142D01*
D10*
X86714288Y-18285714D02*
X87000000Y-18357142D01*
D10*
X86500000Y-18214286D02*
X86714288Y-18285714D01*
D10*
X86285712Y-18071428D02*
X86500000Y-18214286D01*
D10*
X86214288Y-17928572D02*
X86285712Y-18071428D01*
D10*
X86285712Y-17785714D02*
X86214288Y-17928572D01*
D10*
X86428568Y-17714286D02*
X86285712Y-17785714D01*
D10*
X86642856Y-17714286D02*
X86428568Y-17714286D01*
D10*
X86857144Y-17785714D02*
X86642856Y-17714286D01*
D10*
X87000000Y-18000000D02*
X86857144Y-17785714D01*
D10*
X87071432Y-18214286D02*
X87000000Y-18000000D01*
D10*
X87071432Y-18428572D02*
X87071432Y-18214286D01*
D10*
X87000000Y-18571428D02*
X87071432Y-18428572D01*
D10*
X86928568Y-18642858D02*
X87000000Y-18571428D01*
D10*
X86785712Y-18714286D02*
X86928568Y-18642858D01*
D10*
X86642856Y-18714286D02*
X86785712Y-18714286D01*
D10*
X86428568Y-18642858D02*
X86642856Y-18714286D01*
D10*
X86285712Y-18500000D02*
X86428568Y-18642858D01*
D10*
X86785712Y-17785714D02*
X86642856Y-17714286D01*
D10*
X86928568Y-18000000D02*
X86785712Y-17785714D01*
D10*
X87000000Y-18214286D02*
X86928568Y-18000000D01*
D10*
X87000000Y-18500000D02*
X87000000Y-18214286D01*
D10*
X86928568Y-18642858D02*
X87000000Y-18500000D01*
D10*
X85857144Y-17857142D02*
X85928568Y-18000000D01*
D10*
X85714288Y-17714286D02*
X85857144Y-17857142D01*
D10*
X85500000Y-17714286D02*
X85714288Y-17714286D01*
D10*
X85428568Y-17785714D02*
X85500000Y-17714286D01*
D10*
X85428568Y-18000000D02*
X85428568Y-17785714D01*
D10*
X85571432Y-18428572D02*
X85428568Y-18000000D01*
D10*
X85571432Y-18571428D02*
X85571432Y-18428572D01*
D10*
X85428568Y-18714286D02*
X85571432Y-18571428D01*
D10*
X85500000Y-17785714D02*
X85571432Y-17714286D01*
D10*
X85500000Y-18000000D02*
X85500000Y-17785714D01*
D10*
X85642856Y-18428572D02*
X85500000Y-18000000D01*
D10*
X85642856Y-18571428D02*
X85642856Y-18428572D01*
D10*
X85571432Y-18642858D02*
X85642856Y-18571428D01*
D10*
X85428568Y-18714286D02*
X85571432Y-18642858D01*
D10*
X85357144Y-18714286D02*
X85428568Y-18714286D01*
D10*
X85142856Y-18642858D02*
X85357144Y-18714286D01*
D10*
X85000000Y-18500000D02*
X85142856Y-18642858D01*
D10*
X84857144Y-18285714D02*
X85000000Y-18500000D01*
D10*
X84785712Y-18000000D02*
X84857144Y-18285714D01*
D10*
X84785712Y-17714286D02*
X84785712Y-18000000D01*
D10*
X84857144Y-17714286D02*
X84785712Y-17714286D01*
D10*
X84785712Y-17857142D02*
X84857144Y-17714286D01*
D10*
X84071432Y-18714286D02*
X83714288Y-17500000D01*
D10*
X84000000Y-18714286D02*
X83571432Y-17214286D01*
D10*
X83785712Y-17428572D02*
X83571432Y-17214286D01*
D10*
X84000000Y-17571428D02*
X83785712Y-17428572D01*
D10*
X84142856Y-17642858D02*
X84000000Y-17571428D01*
D10*
X83928568Y-17571428D02*
X83642856Y-17428572D01*
D10*
X84142856Y-17642858D02*
X83928568Y-17571428D01*
D10*
X88285712Y-20889286D02*
X87857144Y-19389286D01*
D10*
X88214288Y-20889286D02*
X87785712Y-19389286D01*
D10*
X87571432Y-19389286D02*
X88071432Y-19389286D01*
D10*
X87428568Y-20889286D02*
X88500000Y-20889286D01*
D10*
X87285712Y-20460714D02*
X87428568Y-20889286D01*
D10*
X87500000Y-20889286D02*
X87285712Y-20460714D01*
D10*
X86928568Y-20032142D02*
X87000000Y-20175000D01*
D10*
X86785712Y-19889286D02*
X86928568Y-20032142D01*
D10*
X86571432Y-19889286D02*
X86785712Y-19889286D01*
D10*
X86500000Y-19960714D02*
X86571432Y-19889286D01*
D10*
X86500000Y-20175000D02*
X86500000Y-19960714D01*
D10*
X86642856Y-20603572D02*
X86500000Y-20175000D01*
D10*
X86642856Y-20746428D02*
X86642856Y-20603572D01*
D10*
X86500000Y-20889286D02*
X86642856Y-20746428D01*
D10*
X86571432Y-19960714D02*
X86642856Y-19889286D01*
D10*
X86571432Y-20175000D02*
X86571432Y-19960714D01*
D10*
X86714288Y-20603572D02*
X86571432Y-20175000D01*
D10*
X86714288Y-20746428D02*
X86714288Y-20603572D01*
D10*
X86642856Y-20817858D02*
X86714288Y-20746428D01*
D10*
X86500000Y-20889286D02*
X86642856Y-20817858D01*
D10*
X86357144Y-20889286D02*
X86500000Y-20889286D01*
D10*
X86214288Y-20817858D02*
X86357144Y-20889286D01*
D10*
X86071432Y-20675000D02*
X86214288Y-20817858D01*
D10*
X85928568Y-20389286D02*
X86071432Y-20675000D01*
D10*
X85928568Y-20389286D02*
X85785712Y-19889286D01*
D10*
X86000000Y-20675000D02*
X85928568Y-20389286D01*
D10*
X86000000Y-20817858D02*
X86000000Y-20675000D01*
D10*
X85928568Y-20889286D02*
X86000000Y-20817858D01*
D10*
X85714288Y-20889286D02*
X85928568Y-20889286D01*
D10*
X85571432Y-20746428D02*
X85714288Y-20889286D01*
D10*
X85500000Y-20603572D02*
X85571432Y-20746428D01*
D10*
X85857144Y-20389286D02*
X85714288Y-19889286D01*
D10*
X85928568Y-20675000D02*
X85857144Y-20389286D01*
D10*
X85928568Y-20817858D02*
X85928568Y-20675000D01*
D10*
X85857144Y-20889286D02*
X85928568Y-20817858D01*
D10*
X85285712Y-20889286D02*
X84857144Y-19389286D01*
D10*
X85214288Y-20889286D02*
X84785712Y-19389286D01*
D10*
X84357144Y-20032142D02*
X84285712Y-19960714D01*
D10*
X84285712Y-20103572D02*
X84357144Y-20032142D01*
D10*
X84214288Y-20032142D02*
X84285712Y-20103572D01*
D10*
X84214288Y-19960714D02*
X84214288Y-20032142D01*
D10*
X84285712Y-19889286D02*
X84214288Y-19960714D01*
D10*
X84357144Y-19889286D02*
X84285712Y-19889286D01*
D10*
X84500000Y-19960714D02*
X84357144Y-19889286D01*
D10*
X84785712Y-20246428D02*
X84500000Y-19960714D01*
D10*
X84928568Y-20317858D02*
X84785712Y-20246428D01*
D10*
X85071432Y-20317858D02*
X84928568Y-20317858D01*
D10*
X84785712Y-20389286D02*
X84928568Y-20317858D01*
D10*
X84642856Y-20817858D02*
X84785712Y-20389286D01*
D10*
X84571432Y-20889286D02*
X84642856Y-20817858D01*
D10*
X84857144Y-20389286D02*
X84928568Y-20317858D01*
D10*
X84714288Y-20817858D02*
X84857144Y-20389286D01*
D10*
X84642856Y-20889286D02*
X84714288Y-20817858D01*
D10*
X84500000Y-20889286D02*
X84642856Y-20889286D01*
D10*
X84357144Y-20817858D02*
X84500000Y-20889286D01*
D10*
X84214288Y-20603572D02*
X84357144Y-20817858D01*
D10*
X84785712Y-19389286D02*
X85071432Y-19389286D01*
D10*
X83000000Y-20389286D02*
X82857144Y-19889286D01*
D10*
X83071432Y-20675000D02*
X83000000Y-20389286D01*
D10*
X83071432Y-20817858D02*
X83071432Y-20675000D01*
D10*
X83000000Y-20889286D02*
X83071432Y-20817858D01*
D10*
X82785712Y-20889286D02*
X83000000Y-20889286D01*
D10*
X82642856Y-20746428D02*
X82785712Y-20889286D01*
D10*
X82571432Y-20603572D02*
X82642856Y-20746428D01*
D10*
X82928568Y-20389286D02*
X82785712Y-19889286D01*
D10*
X83000000Y-20675000D02*
X82928568Y-20389286D01*
D10*
X83000000Y-20817858D02*
X83000000Y-20675000D01*
D10*
X82928568Y-20889286D02*
X83000000Y-20817858D01*
D10*
X83000000Y-20175000D02*
X83000000Y-20389286D01*
D10*
X83071432Y-19960714D02*
X83000000Y-20175000D01*
D10*
X83214288Y-19889286D02*
X83071432Y-19960714D01*
D10*
X83357144Y-19889286D02*
X83214288Y-19889286D01*
D10*
X83571432Y-19960714D02*
X83357144Y-19889286D01*
D10*
X83714288Y-20175000D02*
X83571432Y-19960714D01*
D10*
X83785712Y-20389286D02*
X83714288Y-20175000D01*
D10*
X83785712Y-20603572D02*
X83785712Y-20389286D01*
D10*
X83714288Y-20746428D02*
X83785712Y-20603572D01*
D10*
X83642856Y-20817858D02*
X83714288Y-20746428D01*
D10*
X83500000Y-20889286D02*
X83642856Y-20817858D01*
D10*
X83357144Y-20889286D02*
X83500000Y-20889286D01*
D10*
X83214288Y-20817858D02*
X83357144Y-20889286D01*
D10*
X83071432Y-20603572D02*
X83214288Y-20817858D01*
D10*
X83000000Y-20389286D02*
X83071432Y-20603572D01*
D10*
X83500000Y-19960714D02*
X83357144Y-19889286D01*
D10*
X83642856Y-20175000D02*
X83500000Y-19960714D01*
D10*
X83714288Y-20389286D02*
X83642856Y-20175000D01*
D10*
X83714288Y-20675000D02*
X83714288Y-20389286D01*
D10*
X83642856Y-20817858D02*
X83714288Y-20675000D01*
D10*
X81500000Y-20103572D02*
X81500000Y-20032142D01*
D10*
X81428568Y-20103572D02*
X81500000Y-20103572D01*
D10*
X81428568Y-20032142D02*
X81428568Y-20103572D01*
D10*
X81500000Y-19960714D02*
X81428568Y-20032142D01*
D10*
X81714288Y-19889286D02*
X81500000Y-19960714D01*
D10*
X81928568Y-19889286D02*
X81714288Y-19889286D01*
D10*
X82142856Y-19960714D02*
X81928568Y-19889286D01*
D10*
X82214288Y-20032142D02*
X82142856Y-19960714D01*
D10*
X82214288Y-20175000D02*
X82214288Y-20032142D01*
D10*
X82142856Y-20246428D02*
X82214288Y-20175000D01*
D10*
X81642856Y-20532142D02*
X82142856Y-20246428D01*
D10*
X81571432Y-20603572D02*
X81642856Y-20532142D01*
D10*
X82142856Y-20175000D02*
X82214288Y-20103572D01*
D10*
X81642856Y-20460714D02*
X82142856Y-20175000D01*
D10*
X81571432Y-20532142D02*
X81642856Y-20460714D01*
D10*
X81571432Y-20746428D02*
X81571432Y-20532142D01*
D10*
X81642856Y-20817858D02*
X81571432Y-20746428D01*
D10*
X81857144Y-20889286D02*
X81642856Y-20817858D01*
D10*
X82071432Y-20889286D02*
X81857144Y-20889286D01*
D10*
X82285712Y-20817858D02*
X82071432Y-20889286D01*
D10*
X82357144Y-20746428D02*
X82285712Y-20817858D01*
D10*
X82357144Y-20675000D02*
X82357144Y-20746428D01*
D10*
X82285712Y-20675000D02*
X82357144Y-20675000D01*
D10*
X82285712Y-20746428D02*
X82285712Y-20675000D01*
D10*
X80500000Y-20889286D02*
X80071432Y-19389286D01*
D10*
X80428568Y-20889286D02*
X80000000Y-19389286D01*
D10*
X80285712Y-20317858D02*
X79071432Y-19389286D01*
D10*
X79500000Y-20889286D02*
X79785712Y-20032142D01*
D10*
X79571432Y-20889286D02*
X79857144Y-20032142D01*
D10*
X79785712Y-19389286D02*
X80285712Y-19389286D01*
D10*
X78928576Y-19389286D02*
X79357144Y-19389286D01*
D10*
X80214288Y-20889286D02*
X80714288Y-20889286D01*
D10*
X79357144Y-20889286D02*
X79785712Y-20889286D01*
D10*
X78785712Y-20817858D02*
X78714288Y-20746428D01*
D10*
X78714288Y-20889286D02*
X78785712Y-20817858D01*
D10*
X78642856Y-20817858D02*
X78714288Y-20889286D01*
D10*
X78714288Y-20746428D02*
X78642856Y-20817858D01*
D10*
X87928568Y-21921428D02*
X88000000Y-21850000D01*
D10*
X88000000Y-21992858D02*
X87928568Y-21921428D01*
D10*
X88071432Y-21921428D02*
X88000000Y-21992858D01*
D10*
X88071432Y-21850000D02*
X88071432Y-21921428D01*
D10*
X88000000Y-21707142D02*
X88071432Y-21850000D01*
D10*
X87928568Y-21635714D02*
X88000000Y-21707142D01*
D10*
X87714288Y-21564286D02*
X87928568Y-21635714D01*
D10*
X87500000Y-21564286D02*
X87714288Y-21564286D01*
D10*
X87285712Y-21635714D02*
X87500000Y-21564286D01*
D10*
X87214288Y-21778572D02*
X87285712Y-21635714D01*
D10*
X87214288Y-21921428D02*
X87214288Y-21778572D01*
D10*
X87285712Y-22064286D02*
X87214288Y-21921428D01*
D10*
X87428568Y-22207142D02*
X87285712Y-22064286D01*
D10*
X87642856Y-22350000D02*
X87428568Y-22207142D01*
D10*
X87928568Y-22492858D02*
X87642856Y-22350000D01*
D10*
X88142856Y-22635714D02*
X87928568Y-22492858D01*
D10*
X88285712Y-22778572D02*
X88142856Y-22635714D01*
D10*
X88428568Y-23064286D02*
X88285712Y-22778572D01*
D10*
X87357144Y-21635714D02*
X87500000Y-21564286D01*
D10*
X87285712Y-21778572D02*
X87357144Y-21635714D01*
D10*
X87285712Y-21921428D02*
X87285712Y-21778572D01*
D10*
X87357144Y-22064286D02*
X87285712Y-21921428D01*
D10*
X87500000Y-22207142D02*
X87357144Y-22064286D01*
D10*
X87928568Y-22492858D02*
X87500000Y-22207142D01*
D10*
X88285712Y-22850000D02*
X88357144Y-22921428D01*
D10*
X88142856Y-22850000D02*
X88285712Y-22850000D01*
D10*
X87785712Y-22992858D02*
X88142856Y-22850000D01*
D10*
X87571432Y-22992858D02*
X87785712Y-22992858D01*
D10*
X87428568Y-22921428D02*
X87571432Y-22992858D01*
D10*
X87357144Y-22778572D02*
X87428568Y-22921428D01*
D10*
X87785712Y-23064286D02*
X88142856Y-22850000D01*
D10*
X87571432Y-23064286D02*
X87785712Y-23064286D01*
D10*
X87428568Y-22992858D02*
X87571432Y-23064286D01*
D10*
X87357144Y-22778572D02*
X87428568Y-22992858D01*
D10*
X86357144Y-21635714D02*
X86142856Y-21564286D01*
D10*
X86500000Y-21778572D02*
X86357144Y-21635714D01*
D10*
X86642856Y-21992858D02*
X86500000Y-21778572D01*
D10*
X86714288Y-22207142D02*
X86642856Y-21992858D01*
D10*
X86785712Y-22492858D02*
X86714288Y-22207142D01*
D10*
X86785712Y-22707142D02*
X86785712Y-22492858D01*
D10*
X86714288Y-22921428D02*
X86785712Y-22707142D01*
D10*
X86642856Y-22992858D02*
X86714288Y-22921428D01*
D10*
X86500000Y-23064286D02*
X86642856Y-22992858D01*
D10*
X86357144Y-23064286D02*
X86500000Y-23064286D01*
D10*
X86142856Y-22992858D02*
X86357144Y-23064286D01*
D10*
X86000000Y-22850000D02*
X86142856Y-22992858D01*
D10*
X85857144Y-22635714D02*
X86000000Y-22850000D01*
D10*
X85785712Y-22421428D02*
X85857144Y-22635714D01*
D10*
X85714288Y-22135714D02*
X85785712Y-22421428D01*
D10*
X85714288Y-21921428D02*
X85714288Y-22135714D01*
D10*
X85785712Y-21707142D02*
X85714288Y-21921428D01*
D10*
X85857144Y-21635714D02*
X85785712Y-21707142D01*
D10*
X86000000Y-21564286D02*
X85857144Y-21635714D01*
D10*
X86142856Y-21564286D02*
X86000000Y-21564286D01*
D10*
X86285712Y-21635714D02*
X86142856Y-21564286D01*
D10*
X86428568Y-21778572D02*
X86285712Y-21635714D01*
D10*
X86571432Y-21992858D02*
X86428568Y-21778572D01*
D10*
X86642856Y-22207142D02*
X86571432Y-21992858D01*
D10*
X86714288Y-22492858D02*
X86642856Y-22207142D01*
D10*
X86714288Y-22707142D02*
X86714288Y-22492858D01*
D10*
X86642856Y-22921428D02*
X86714288Y-22707142D01*
D10*
X86500000Y-23064286D02*
X86642856Y-22921428D01*
D10*
X86214288Y-22992858D02*
X86357144Y-23064286D01*
D10*
X86071432Y-22850000D02*
X86214288Y-22992858D01*
D10*
X85928568Y-22635714D02*
X86071432Y-22850000D01*
D10*
X85857144Y-22421428D02*
X85928568Y-22635714D01*
D10*
X85785712Y-22135714D02*
X85857144Y-22421428D01*
D10*
X85785712Y-21921428D02*
X85785712Y-22135714D01*
D10*
X85857144Y-21707142D02*
X85785712Y-21921428D01*
D10*
X86000000Y-21564286D02*
X85857144Y-21707142D01*
D10*
X84928568Y-21921428D02*
X85000000Y-21850000D01*
D10*
X85000000Y-21992858D02*
X84928568Y-21921428D01*
D10*
X85071432Y-21921428D02*
X85000000Y-21992858D01*
D10*
X85071432Y-21850000D02*
X85071432Y-21921428D01*
D10*
X85000000Y-21707142D02*
X85071432Y-21850000D01*
D10*
X84928568Y-21635714D02*
X85000000Y-21707142D01*
D10*
X84714288Y-21564286D02*
X84928568Y-21635714D01*
D10*
X84500000Y-21564286D02*
X84714288Y-21564286D01*
D10*
X84285712Y-21635714D02*
X84500000Y-21564286D01*
D10*
X84214288Y-21778572D02*
X84285712Y-21635714D01*
D10*
X84214288Y-21921428D02*
X84214288Y-21778572D01*
D10*
X84285712Y-22064286D02*
X84214288Y-21921428D01*
D10*
X84428568Y-22207142D02*
X84285712Y-22064286D01*
D10*
X84642856Y-22350000D02*
X84428568Y-22207142D01*
D10*
X84928568Y-22492858D02*
X84642856Y-22350000D01*
D10*
X85142856Y-22635714D02*
X84928568Y-22492858D01*
D10*
X85285712Y-22778572D02*
X85142856Y-22635714D01*
D10*
X85428568Y-23064286D02*
X85285712Y-22778572D01*
D10*
X84357144Y-21635714D02*
X84500000Y-21564286D01*
D10*
X84285712Y-21778572D02*
X84357144Y-21635714D01*
D10*
X84285712Y-21921428D02*
X84285712Y-21778572D01*
D10*
X84357144Y-22064286D02*
X84285712Y-21921428D01*
D10*
X84500000Y-22207142D02*
X84357144Y-22064286D01*
D10*
X84928568Y-22492858D02*
X84500000Y-22207142D01*
D10*
X85285712Y-22850000D02*
X85357144Y-22921428D01*
D10*
X85142856Y-22850000D02*
X85285712Y-22850000D01*
D10*
X84785712Y-22992858D02*
X85142856Y-22850000D01*
D10*
X84571432Y-22992858D02*
X84785712Y-22992858D01*
D10*
X84428568Y-22921428D02*
X84571432Y-22992858D01*
D10*
X84357144Y-22778572D02*
X84428568Y-22921428D01*
D10*
X84785712Y-23064286D02*
X85142856Y-22850000D01*
D10*
X84571432Y-23064286D02*
X84785712Y-23064286D01*
D10*
X84428568Y-22992858D02*
X84571432Y-23064286D01*
D10*
X84357144Y-22778572D02*
X84428568Y-22992858D01*
D10*
X83285712Y-23064286D02*
X82857144Y-21635714D01*
D10*
X83214288Y-23064286D02*
X82785712Y-21564286D01*
D10*
X83857144Y-22635714D02*
X82785712Y-21564286D01*
D10*
X82714288Y-22635714D02*
X83857144Y-22635714D01*
D10*
X80928568Y-22421428D02*
X82214288Y-22421428D01*
D10*
X80142856Y-23064286D02*
X79785712Y-21850000D01*
D10*
X80071432Y-23064286D02*
X79642856Y-21564286D01*
D10*
X79857144Y-21778572D02*
X79642856Y-21564286D01*
D10*
X80071432Y-21921428D02*
X79857144Y-21778572D01*
D10*
X80214288Y-21992858D02*
X80071432Y-21921428D01*
D10*
X80000000Y-21921428D02*
X79714288Y-21778572D01*
D10*
X80214288Y-21992858D02*
X80000000Y-21921428D01*
D10*
X78642856Y-23064286D02*
X78285712Y-21850000D01*
D10*
X78571432Y-23064286D02*
X78142856Y-21564286D01*
D10*
X78357144Y-21778572D02*
X78142856Y-21564286D01*
D10*
X78571432Y-21921428D02*
X78357144Y-21778572D01*
D10*
X78714288Y-21992858D02*
X78571432Y-21921428D01*
D10*
X78500000Y-21921428D02*
X78214288Y-21778572D01*
D10*
X78714288Y-21992858D02*
X78500000Y-21921428D01*
G75*
M02*
