%FSLAX46Y46*%
%MOMM*%
%ADD10C,0.500000*%
%AMPS12*
1,1,1.650000,0.000000,0.000000*
%
%ADD12PS12*%
%AMPS11*
1,1,1.700000,0.000000,0.000000*
%
%ADD11PS11*%
%AMPS13*
1,1,0.500000,0.000000,0.000000*
%
%ADD13PS13*%
G01*
%LPD*%
G01*
%LPD*%
D10*
X49500000Y-17040000D02*
X32070000Y-17040000D01*
D10*
X500000Y19500000D02*
X21800000Y-1800000D01*
D10*
X1000000Y21000000D02*
X-36000000Y21000000D01*
D10*
X-36500000Y7910000D02*
X-36500000Y14500000D01*
D10*
X-35500000Y19500000D02*
X500000Y19500000D01*
D10*
X-39500000Y5830000D02*
X-39500000Y15500000D01*
D10*
X-34500000Y16500000D02*
X-1000000Y16500000D01*
D10*
X22090000Y-4340000D02*
X49500000Y-4340000D01*
D10*
X49500000Y-14500000D02*
X34610000Y-14500000D01*
D10*
X-35000000Y18000000D02*
X-250000Y18000000D01*
D10*
X49500000Y-11960000D02*
X37150000Y-11960000D01*
D10*
X-35500000Y6910000D02*
X-36500000Y7910000D01*
D10*
X21260000Y740000D02*
X1000000Y21000000D01*
D10*
X49500000Y740000D02*
X21260000Y740000D01*
D10*
X22380000Y-6880000D02*
X49500000Y-6880000D01*
D10*
X-41000000Y16000000D02*
X-41000000Y4790000D01*
D10*
X-250000Y18000000D02*
X22090000Y-4340000D01*
D10*
X-39500000Y15500000D02*
X-35500000Y19500000D01*
D10*
X-35500000Y1830000D02*
X-39500000Y5830000D01*
D10*
X49500000Y-9420000D02*
X39690000Y-9420000D01*
D10*
X-36000000Y21000000D02*
X-41000000Y16000000D01*
D10*
X-38000000Y15000000D02*
X-35000000Y18000000D01*
D10*
X-38000000Y6870000D02*
X-38000000Y15000000D01*
D10*
X-36500000Y14500000D02*
X-34500000Y16500000D01*
D10*
X21800000Y-1800000D02*
X49500000Y-1800000D01*
D10*
X-41000000Y4790000D02*
X-35500000Y-710000D01*
D10*
X-35500000Y4370000D02*
X-38000000Y6870000D01*
D10*
X-1000000Y16500000D02*
X22380000Y-6880000D01*
G75*
D11*
X49500000Y-1800000D03*
D11*
X49500000Y-9420000D03*
D11*
X49500000Y-17040000D03*
D11*
X49500000Y5820000D03*
D11*
X49500000Y3280000D03*
D11*
X49500000Y-4340000D03*
D11*
X49500000Y-14500000D03*
D11*
X49500000Y-11960000D03*
D11*
X49500000Y740000D03*
D11*
X49500000Y-6880000D03*
D12*
X91050000Y-6880000D03*
D12*
X91050000Y-1800000D03*
D12*
X55490000Y4550000D03*
D12*
X52950000Y740000D03*
D12*
X52950000Y4550000D03*
D12*
X91050000Y740000D03*
D12*
X91050000Y-4340000D03*
D12*
X52950000Y-1800000D03*
D12*
X52950000Y-4340000D03*
D12*
X52950000Y-6880000D03*
D13*
X-35500000Y-710000D03*
D13*
X34610000Y-14500000D03*
D13*
X-35500000Y4370000D03*
D13*
X39690000Y-9420000D03*
D13*
X-35500000Y6910000D03*
D13*
X32070000Y-17040000D03*
D13*
X37150000Y-11960000D03*
D13*
X-35500000Y1830000D03*
M02*
