%FSLAX46Y46*%
%MOMM*%
%ADD10C,0.150000*%
%ADD11C,0.350000*%
G01*
%LPD*%
G01*
%LPD*%
D10*
X46372760Y1168571D02*
X46325144Y1168571D01*
D10*
X46420380Y1263809D02*
X46372760Y1168571D01*
D10*
X46372760Y978095D02*
X46420380Y1263809D01*
D10*
X46372760Y1073333D02*
X46372760Y978095D01*
D10*
X46325144Y1168571D02*
X46372760Y1073333D01*
D10*
X46277524Y1216190D02*
X46325144Y1168571D01*
D10*
X46182284Y1263809D02*
X46277524Y1216190D01*
D10*
X46039428Y1263809D02*
X46182284Y1263809D01*
D10*
X45896572Y1216190D02*
X46039428Y1263809D01*
D10*
X45801332Y1120952D02*
X45896572Y1216190D01*
D10*
X45706096Y978095D02*
X45801332Y1120952D01*
D10*
X45658476Y835238D02*
X45706096Y978095D01*
D10*
X45610856Y644761D02*
X45658476Y835238D01*
D10*
X45610856Y501904D02*
X45610856Y644761D01*
D10*
X45658476Y359047D02*
X45610856Y501904D01*
D10*
X45706096Y311428D02*
X45658476Y359047D01*
D10*
X45848952Y263809D02*
X45706096Y311428D01*
D10*
X45991808Y263809D02*
X45848952Y263809D01*
D10*
X46087048Y311428D02*
X45991808Y263809D01*
D10*
X46182284Y406666D02*
X46087048Y311428D01*
D10*
X46229904Y501904D02*
X46182284Y406666D01*
D10*
X45944192Y1216190D02*
X46039428Y1263809D01*
D10*
X45848952Y1120952D02*
X45944192Y1216190D01*
D10*
X45753716Y978095D02*
X45848952Y1120952D01*
D10*
X45706096Y835238D02*
X45753716Y978095D01*
D10*
X45658476Y644761D02*
X45706096Y835238D01*
D10*
X45658476Y501904D02*
X45658476Y644761D01*
D10*
X45706096Y359047D02*
X45658476Y501904D01*
D10*
X45753716Y311428D02*
X45706096Y359047D01*
D10*
X45848952Y263809D02*
X45753716Y311428D01*
D10*
X46944192Y263809D02*
X47229904Y1216190D01*
D10*
X46991808Y263809D02*
X47277524Y1263809D01*
D10*
X46563240Y549523D02*
X47277524Y1263809D01*
D10*
X47325144Y549523D02*
X46563240Y549523D01*
D10*
X70357144Y857142D02*
X69214288Y857142D01*
D10*
X70571432Y785714D02*
X70357144Y857142D01*
D10*
X70642856Y714285D02*
X70571432Y785714D01*
D10*
X70714288Y571428D02*
X70642856Y714285D01*
D10*
X70714288Y428571D02*
X70714288Y571428D01*
D10*
X70642856Y285714D02*
X70714288Y428571D01*
D10*
X70571432Y214285D02*
X70642856Y285714D01*
D10*
X70357144Y142857D02*
X70571432Y214285D01*
D10*
X70214288Y142857D02*
X70357144Y142857D01*
D10*
X70714288Y1428571D02*
X69214288Y1428571D01*
D10*
X70714288Y2285714D02*
X70714288Y1428571D01*
D10*
X69428568Y3571428D02*
X69571432Y3642857D01*
D10*
X69285712Y3428571D02*
X69428568Y3571428D01*
D10*
X69214288Y3285714D02*
X69285712Y3428571D01*
D10*
X69214288Y3000000D02*
X69214288Y3285714D01*
D10*
X69285712Y2857142D02*
X69214288Y3000000D01*
D10*
X69428568Y2714285D02*
X69285712Y2857142D01*
D10*
X69571432Y2642857D02*
X69428568Y2714285D01*
D10*
X69785712Y2571428D02*
X69571432Y2642857D01*
D10*
X70142856Y2571428D02*
X69785712Y2571428D01*
D10*
X70357144Y2642857D02*
X70142856Y2571428D01*
D10*
X70500000Y2714285D02*
X70357144Y2642857D01*
D10*
X70642856Y2857142D02*
X70500000Y2714285D01*
D10*
X70714288Y3000000D02*
X70642856Y2857142D01*
D10*
X70714288Y3285714D02*
X70714288Y3000000D01*
D10*
X70642856Y3428571D02*
X70714288Y3285714D01*
D10*
X70500000Y3571428D02*
X70642856Y3428571D01*
D10*
X70357144Y3642857D02*
X70500000Y3571428D01*
D10*
X70357144Y4714285D02*
X69214288Y4714285D01*
D10*
X70571432Y4642857D02*
X70357144Y4714285D01*
D10*
X70642856Y4571428D02*
X70571432Y4642857D01*
D10*
X70714288Y4428571D02*
X70642856Y4571428D01*
D10*
X70714288Y4285714D02*
X70714288Y4428571D01*
D10*
X70642856Y4142857D02*
X70714288Y4285714D01*
D10*
X70571432Y4071428D02*
X70642856Y4142857D01*
D10*
X70357144Y4000000D02*
X70571432Y4071428D01*
D10*
X70214288Y4000000D02*
X70357144Y4000000D01*
D10*
X70714288Y5285714D02*
X69214288Y5285714D01*
D10*
X70714288Y6142857D02*
X70714288Y5285714D01*
D10*
X69428568Y7428571D02*
X69571432Y7500000D01*
D10*
X69285712Y7285714D02*
X69428568Y7428571D01*
D10*
X69214288Y7142857D02*
X69285712Y7285714D01*
D10*
X69214288Y6857143D02*
X69214288Y7142857D01*
D10*
X69285712Y6714285D02*
X69214288Y6857143D01*
D10*
X69428568Y6571428D02*
X69285712Y6714285D01*
D10*
X69571432Y6500000D02*
X69428568Y6571428D01*
D10*
X69785712Y6428571D02*
X69571432Y6500000D01*
D10*
X70142856Y6428571D02*
X69785712Y6428571D01*
D10*
X70357144Y6500000D02*
X70142856Y6428571D01*
D10*
X70500000Y6571428D02*
X70357144Y6500000D01*
D10*
X70642856Y6714285D02*
X70500000Y6571428D01*
D10*
X70714288Y6857143D02*
X70642856Y6714285D01*
D10*
X70714288Y7142857D02*
X70714288Y6857143D01*
D10*
X70642856Y7285714D02*
X70714288Y7142857D01*
D10*
X70500000Y7428571D02*
X70642856Y7285714D01*
D10*
X70357144Y7500000D02*
X70500000Y7428571D01*
D10*
X70357144Y8571428D02*
X69214288Y8571428D01*
D10*
X70571432Y8500000D02*
X70357144Y8571428D01*
D10*
X70642856Y8428571D02*
X70571432Y8500000D01*
D10*
X70714288Y8285714D02*
X70642856Y8428571D01*
D10*
X70714288Y8142857D02*
X70714288Y8285714D01*
D10*
X70642856Y8000000D02*
X70714288Y8142857D01*
D10*
X70571432Y7928571D02*
X70642856Y8000000D01*
D10*
X70357144Y7857142D02*
X70571432Y7928571D01*
D10*
X70214288Y7857142D02*
X70357144Y7857142D01*
D10*
X70714288Y9142857D02*
X69214288Y9142857D01*
D10*
X70714288Y10000000D02*
X70714288Y9142857D01*
D10*
X69428568Y11285714D02*
X69571432Y11357143D01*
D10*
X69285712Y11142857D02*
X69428568Y11285714D01*
D10*
X69214288Y11000000D02*
X69285712Y11142857D01*
D10*
X69214288Y10714286D02*
X69214288Y11000000D01*
D10*
X69285712Y10571428D02*
X69214288Y10714286D01*
D10*
X69428568Y10428571D02*
X69285712Y10571428D01*
D10*
X69571432Y10357143D02*
X69428568Y10428571D01*
D10*
X69785712Y10285714D02*
X69571432Y10357143D01*
D10*
X70142856Y10285714D02*
X69785712Y10285714D01*
D10*
X70357144Y10357143D02*
X70142856Y10285714D01*
D10*
X70500000Y10428571D02*
X70357144Y10357143D01*
D10*
X70642856Y10571428D02*
X70500000Y10428571D01*
D10*
X70714288Y10714286D02*
X70642856Y10571428D01*
D10*
X70714288Y11000000D02*
X70714288Y10714286D01*
D10*
X70642856Y11142857D02*
X70714288Y11000000D01*
D10*
X70500000Y11285714D02*
X70642856Y11142857D01*
D10*
X70357144Y11357143D02*
X70500000Y11285714D01*
D10*
X70357144Y12428571D02*
X69214288Y12428571D01*
D10*
X70571432Y12357143D02*
X70357144Y12428571D01*
D10*
X70642856Y12285714D02*
X70571432Y12357143D01*
D10*
X70714288Y12142857D02*
X70642856Y12285714D01*
D10*
X70714288Y12000000D02*
X70714288Y12142857D01*
D10*
X70642856Y11857143D02*
X70714288Y12000000D01*
D10*
X70571432Y11785714D02*
X70642856Y11857143D01*
D10*
X70357144Y11714286D02*
X70571432Y11785714D01*
D10*
X70214288Y11714286D02*
X70357144Y11714286D01*
D10*
X70714288Y13000000D02*
X69214288Y13000000D01*
D10*
X70714288Y13857143D02*
X70714288Y13000000D01*
D10*
X69428568Y15142857D02*
X69571432Y15214285D01*
D10*
X69285712Y15000000D02*
X69428568Y15142857D01*
D10*
X69214288Y14857143D02*
X69285712Y15000000D01*
D10*
X69214288Y14571428D02*
X69214288Y14857143D01*
D10*
X69285712Y14428571D02*
X69214288Y14571428D01*
D10*
X69428568Y14285714D02*
X69285712Y14428571D01*
D10*
X69571432Y14214285D02*
X69428568Y14285714D01*
D10*
X69785712Y14142857D02*
X69571432Y14214285D01*
D10*
X70142856Y14142857D02*
X69785712Y14142857D01*
D10*
X70357144Y14214285D02*
X70142856Y14142857D01*
D10*
X70500000Y14285714D02*
X70357144Y14214285D01*
D10*
X70642856Y14428571D02*
X70500000Y14285714D01*
D10*
X70714288Y14571428D02*
X70642856Y14428571D01*
D10*
X70714288Y14857143D02*
X70714288Y14571428D01*
D10*
X70642856Y15000000D02*
X70714288Y14857143D01*
D10*
X70500000Y15142857D02*
X70642856Y15000000D01*
D10*
X70357144Y15214285D02*
X70500000Y15142857D01*
D10*
X45325144Y-1371428D02*
X45277524Y-1371428D01*
D10*
X45372760Y-1276190D02*
X45325144Y-1371428D01*
D10*
X45325144Y-1561904D02*
X45372760Y-1276190D01*
D10*
X45325144Y-1466666D02*
X45325144Y-1561904D01*
D10*
X45277524Y-1371428D02*
X45325144Y-1466666D01*
D10*
X45229904Y-1323809D02*
X45277524Y-1371428D01*
D10*
X45134668Y-1276190D02*
X45229904Y-1323809D01*
D10*
X44991808Y-1276190D02*
X45134668Y-1276190D01*
D10*
X44848952Y-1323809D02*
X44991808Y-1276190D01*
D10*
X44753716Y-1419047D02*
X44848952Y-1323809D01*
D10*
X44658476Y-1561904D02*
X44753716Y-1419047D01*
D10*
X44610856Y-1704761D02*
X44658476Y-1561904D01*
D10*
X44563240Y-1895238D02*
X44610856Y-1704761D01*
D10*
X44563240Y-2038095D02*
X44563240Y-1895238D01*
D10*
X44610856Y-2180952D02*
X44563240Y-2038095D01*
D10*
X44658476Y-2228571D02*
X44610856Y-2180952D01*
D10*
X44801332Y-2276190D02*
X44658476Y-2228571D01*
D10*
X44944192Y-2276190D02*
X44801332Y-2276190D01*
D10*
X45039428Y-2228571D02*
X44944192Y-2276190D01*
D10*
X45134668Y-2133333D02*
X45039428Y-2228571D01*
D10*
X45182284Y-2038095D02*
X45134668Y-2133333D01*
D10*
X44896572Y-1323809D02*
X44991808Y-1276190D01*
D10*
X44801332Y-1419047D02*
X44896572Y-1323809D01*
D10*
X44706096Y-1561904D02*
X44801332Y-1419047D01*
D10*
X44658476Y-1704761D02*
X44706096Y-1561904D01*
D10*
X44610856Y-1895238D02*
X44658476Y-1704761D01*
D10*
X44610856Y-2038095D02*
X44610856Y-1895238D01*
D10*
X44658476Y-2180952D02*
X44610856Y-2038095D01*
D10*
X44706096Y-2228571D02*
X44658476Y-2180952D01*
D10*
X44801332Y-2276190D02*
X44706096Y-2228571D01*
D10*
X45563240Y-2276190D02*
X45848952Y-1276190D01*
D10*
X45610856Y-2276190D02*
X45896572Y-1276190D01*
D10*
X46039428Y-1276190D02*
X45706096Y-1276190D01*
D10*
X46134668Y-2276190D02*
X45420380Y-2276190D01*
D10*
X46229904Y-1990476D02*
X46134668Y-2276190D01*
D10*
X46087048Y-2276190D02*
X46229904Y-1990476D01*
D10*
X46515620Y-2276190D02*
X46801332Y-1276190D01*
D10*
X46563240Y-2276190D02*
X46848952Y-1276190D01*
D10*
X46658476Y-1895238D02*
X47468000Y-1276190D01*
D10*
X47182284Y-2276190D02*
X46991808Y-1704761D01*
D10*
X47134668Y-2276190D02*
X46944192Y-1704761D01*
D10*
X46991808Y-1276190D02*
X46658476Y-1276190D01*
D10*
X47563240Y-1276190D02*
X47277524Y-1276190D01*
D10*
X46706096Y-2276190D02*
X46372760Y-2276190D01*
D10*
X47277524Y-2276190D02*
X46991808Y-2276190D01*
D10*
X46325144Y6248571D02*
X46277524Y6248571D01*
D10*
X46372760Y6343809D02*
X46325144Y6248571D01*
D10*
X46325144Y6058095D02*
X46372760Y6343809D01*
D10*
X46325144Y6153333D02*
X46325144Y6058095D01*
D10*
X46277524Y6248571D02*
X46325144Y6153333D01*
D10*
X46229904Y6296190D02*
X46277524Y6248571D01*
D10*
X46087048Y6343809D02*
X46229904Y6296190D01*
D10*
X45896572Y6343809D02*
X46087048Y6343809D01*
D10*
X45753716Y6296190D02*
X45896572Y6343809D01*
D10*
X45658476Y6200952D02*
X45753716Y6296190D01*
D10*
X45658476Y6105714D02*
X45658476Y6200952D01*
D10*
X45706096Y6010476D02*
X45658476Y6105714D01*
D10*
X45753716Y5962857D02*
X45706096Y6010476D01*
D10*
X46087048Y5772381D02*
X45753716Y5962857D01*
D10*
X46182284Y5677143D02*
X46087048Y5772381D01*
D10*
X45753716Y6010476D02*
X45658476Y6105714D01*
D10*
X46087048Y5820000D02*
X45753716Y6010476D01*
D10*
X46134668Y5772381D02*
X46087048Y5820000D01*
D10*
X46182284Y5677143D02*
X46134668Y5772381D01*
D10*
X46182284Y5534285D02*
X46182284Y5677143D01*
D10*
X46134668Y5439047D02*
X46182284Y5534285D01*
D10*
X46087048Y5391428D02*
X46134668Y5439047D01*
D10*
X45944192Y5343809D02*
X46087048Y5391428D01*
D10*
X45753716Y5343809D02*
X45944192Y5343809D01*
D10*
X45610856Y5391428D02*
X45753716Y5343809D01*
D10*
X45563240Y5439047D02*
X45610856Y5391428D01*
D10*
X45515620Y5534285D02*
X45563240Y5439047D01*
D10*
X45515620Y5629524D02*
X45515620Y5534285D01*
D10*
X45468000Y5343809D02*
X45515620Y5629524D01*
D10*
X45515620Y5439047D02*
X45468000Y5343809D01*
D10*
X45563240Y5439047D02*
X45515620Y5439047D01*
D10*
X46848952Y6105714D02*
X46801332Y6153333D01*
D10*
X46801332Y6058095D02*
X46848952Y6105714D01*
D10*
X46753716Y6105714D02*
X46801332Y6058095D01*
D10*
X46753716Y6153333D02*
X46753716Y6105714D01*
D10*
X46801332Y6248571D02*
X46753716Y6153333D01*
D10*
X46848952Y6296190D02*
X46801332Y6248571D01*
D10*
X46991808Y6343809D02*
X46848952Y6296190D01*
D10*
X47134668Y6343809D02*
X46991808Y6343809D01*
D10*
X47277524Y6296190D02*
X47134668Y6343809D01*
D10*
X47325144Y6200952D02*
X47277524Y6296190D01*
D10*
X47325144Y6105714D02*
X47325144Y6200952D01*
D10*
X47277524Y6010476D02*
X47325144Y6105714D01*
D10*
X47182284Y5915238D02*
X47277524Y6010476D01*
D10*
X47039428Y5820000D02*
X47182284Y5915238D01*
D10*
X46848952Y5724762D02*
X47039428Y5820000D01*
D10*
X46706096Y5629524D02*
X46848952Y5724762D01*
D10*
X46610856Y5534285D02*
X46706096Y5629524D01*
D10*
X46515620Y5343809D02*
X46610856Y5534285D01*
D10*
X47229904Y6296190D02*
X47134668Y6343809D01*
D10*
X47277524Y6200952D02*
X47229904Y6296190D01*
D10*
X47277524Y6105714D02*
X47277524Y6200952D01*
D10*
X47229904Y6010476D02*
X47277524Y6105714D01*
D10*
X47134668Y5915238D02*
X47229904Y6010476D01*
D10*
X46848952Y5724762D02*
X47134668Y5915238D01*
D10*
X46610856Y5486666D02*
X46563240Y5439047D01*
D10*
X46706096Y5486666D02*
X46610856Y5486666D01*
D10*
X46944192Y5391428D02*
X46706096Y5486666D01*
D10*
X47087048Y5391428D02*
X46944192Y5391428D01*
D10*
X47182284Y5439047D02*
X47087048Y5391428D01*
D10*
X47229904Y5534285D02*
X47182284Y5439047D01*
D10*
X46944192Y5343809D02*
X46706096Y5486666D01*
D10*
X47087048Y5343809D02*
X46944192Y5343809D01*
D10*
X47182284Y5391428D02*
X47087048Y5343809D01*
D10*
X47229904Y5534285D02*
X47182284Y5391428D01*
D10*
X46325144Y3708571D02*
X46277524Y3708571D01*
D10*
X46372760Y3803809D02*
X46325144Y3708571D01*
D10*
X46325144Y3518095D02*
X46372760Y3803809D01*
D10*
X46325144Y3613333D02*
X46325144Y3518095D01*
D10*
X46277524Y3708571D02*
X46325144Y3613333D01*
D10*
X46229904Y3756190D02*
X46277524Y3708571D01*
D10*
X46087048Y3803809D02*
X46229904Y3756190D01*
D10*
X45896572Y3803809D02*
X46087048Y3803809D01*
D10*
X45753716Y3756190D02*
X45896572Y3803809D01*
D10*
X45658476Y3660952D02*
X45753716Y3756190D01*
D10*
X45658476Y3565714D02*
X45658476Y3660952D01*
D10*
X45706096Y3470476D02*
X45658476Y3565714D01*
D10*
X45753716Y3422857D02*
X45706096Y3470476D01*
D10*
X46087048Y3232381D02*
X45753716Y3422857D01*
D10*
X46182284Y3137142D02*
X46087048Y3232381D01*
D10*
X45753716Y3470476D02*
X45658476Y3565714D01*
D10*
X46087048Y3280000D02*
X45753716Y3470476D01*
D10*
X46134668Y3232381D02*
X46087048Y3280000D01*
D10*
X46182284Y3137142D02*
X46134668Y3232381D01*
D10*
X46182284Y2994285D02*
X46182284Y3137142D01*
D10*
X46134668Y2899047D02*
X46182284Y2994285D01*
D10*
X46087048Y2851428D02*
X46134668Y2899047D01*
D10*
X45944192Y2803809D02*
X46087048Y2851428D01*
D10*
X45753716Y2803809D02*
X45944192Y2803809D01*
D10*
X45610856Y2851428D02*
X45753716Y2803809D01*
D10*
X45563240Y2899047D02*
X45610856Y2851428D01*
D10*
X45515620Y2994285D02*
X45563240Y2899047D01*
D10*
X45515620Y3089523D02*
X45515620Y2994285D01*
D10*
X45468000Y2803809D02*
X45515620Y3089523D01*
D10*
X45515620Y2899047D02*
X45468000Y2803809D01*
D10*
X45563240Y2899047D02*
X45515620Y2899047D01*
D10*
X46801332Y2803809D02*
X47039428Y3613333D01*
D10*
X46848952Y2803809D02*
X47134668Y3803809D01*
D10*
X46991808Y3660952D02*
X47134668Y3803809D01*
D10*
X46848952Y3565714D02*
X46991808Y3660952D01*
D10*
X46753716Y3518095D02*
X46848952Y3565714D01*
D10*
X46896572Y3565714D02*
X47087048Y3660952D01*
D10*
X46753716Y3518095D02*
X46896572Y3565714D01*
D10*
X46372760Y-8991429D02*
X46325144Y-8991429D01*
D10*
X46420380Y-8896190D02*
X46372760Y-8991429D01*
D10*
X46372760Y-9181905D02*
X46420380Y-8896190D01*
D10*
X46372760Y-9086667D02*
X46372760Y-9181905D01*
D10*
X46325144Y-8991429D02*
X46372760Y-9086667D01*
D10*
X46277524Y-8943810D02*
X46325144Y-8991429D01*
D10*
X46182284Y-8896190D02*
X46277524Y-8943810D01*
D10*
X46039428Y-8896190D02*
X46182284Y-8896190D01*
D10*
X45896572Y-8943810D02*
X46039428Y-8896190D01*
D10*
X45801332Y-9039048D02*
X45896572Y-8943810D01*
D10*
X45706096Y-9181905D02*
X45801332Y-9039048D01*
D10*
X45658476Y-9324762D02*
X45706096Y-9181905D01*
D10*
X45610856Y-9515238D02*
X45658476Y-9324762D01*
D10*
X45610856Y-9658095D02*
X45610856Y-9515238D01*
D10*
X45658476Y-9800952D02*
X45610856Y-9658095D01*
D10*
X45706096Y-9848571D02*
X45658476Y-9800952D01*
D10*
X45848952Y-9896190D02*
X45706096Y-9848571D01*
D10*
X45991808Y-9896190D02*
X45848952Y-9896190D01*
D10*
X46087048Y-9848571D02*
X45991808Y-9896190D01*
D10*
X46182284Y-9753333D02*
X46087048Y-9848571D01*
D10*
X46229904Y-9658095D02*
X46182284Y-9753333D01*
D10*
X45944192Y-8943810D02*
X46039428Y-8896190D01*
D10*
X45848952Y-9039048D02*
X45944192Y-8943810D01*
D10*
X45753716Y-9181905D02*
X45848952Y-9039048D01*
D10*
X45706096Y-9324762D02*
X45753716Y-9181905D01*
D10*
X45658476Y-9515238D02*
X45706096Y-9324762D01*
D10*
X45658476Y-9658095D02*
X45658476Y-9515238D01*
D10*
X45706096Y-9800952D02*
X45658476Y-9658095D01*
D10*
X45753716Y-9848571D02*
X45706096Y-9800952D01*
D10*
X45848952Y-9896190D02*
X45753716Y-9848571D01*
D10*
X46848952Y-8943810D02*
X46991808Y-8896190D01*
D10*
X46801332Y-8991429D02*
X46848952Y-8943810D01*
D10*
X46753716Y-9086667D02*
X46801332Y-8991429D01*
D10*
X46753716Y-9229524D02*
X46753716Y-9086667D01*
D10*
X46801332Y-9324762D02*
X46753716Y-9229524D01*
D10*
X46896572Y-9372381D02*
X46801332Y-9324762D01*
D10*
X47039428Y-9372381D02*
X46896572Y-9372381D01*
D10*
X47229904Y-9324762D02*
X47039428Y-9372381D01*
D10*
X47277524Y-9277143D02*
X47229904Y-9324762D01*
D10*
X47325144Y-9181905D02*
X47277524Y-9277143D01*
D10*
X47325144Y-9039048D02*
X47325144Y-9181905D01*
D10*
X47277524Y-8943810D02*
X47325144Y-9039048D01*
D10*
X47134668Y-8896190D02*
X47277524Y-8943810D01*
D10*
X46991808Y-8896190D02*
X47134668Y-8896190D01*
D10*
X46896572Y-8943810D02*
X46991808Y-8896190D01*
D10*
X46848952Y-8991429D02*
X46896572Y-8943810D01*
D10*
X46801332Y-9086667D02*
X46848952Y-8991429D01*
D10*
X46801332Y-9229524D02*
X46801332Y-9086667D01*
D10*
X46848952Y-9324762D02*
X46801332Y-9229524D01*
D10*
X46896572Y-9372381D02*
X46848952Y-9324762D01*
D10*
X47182284Y-9324762D02*
X47039428Y-9372381D01*
D10*
X47229904Y-9277143D02*
X47182284Y-9324762D01*
D10*
X47277524Y-9181905D02*
X47229904Y-9277143D01*
D10*
X47277524Y-9039048D02*
X47277524Y-9181905D01*
D10*
X47229904Y-8943810D02*
X47277524Y-9039048D01*
D10*
X47134668Y-8896190D02*
X47229904Y-8943810D01*
D10*
X46706096Y-9420000D02*
X46896572Y-9372381D01*
D10*
X46610856Y-9515238D02*
X46706096Y-9420000D01*
D10*
X46563240Y-9610476D02*
X46610856Y-9515238D01*
D10*
X46563240Y-9753333D02*
X46563240Y-9610476D01*
D10*
X46610856Y-9848571D02*
X46563240Y-9753333D01*
D10*
X46753716Y-9896190D02*
X46610856Y-9848571D01*
D10*
X46944192Y-9896190D02*
X46753716Y-9896190D01*
D10*
X47134668Y-9848571D02*
X46944192Y-9896190D01*
D10*
X47182284Y-9800952D02*
X47134668Y-9848571D01*
D10*
X47229904Y-9705714D02*
X47182284Y-9800952D01*
D10*
X47229904Y-9562857D02*
X47229904Y-9705714D01*
D10*
X47182284Y-9467619D02*
X47229904Y-9562857D01*
D10*
X47134668Y-9420000D02*
X47182284Y-9467619D01*
D10*
X47039428Y-9372381D02*
X47134668Y-9420000D01*
D10*
X46753716Y-9420000D02*
X46896572Y-9372381D01*
D10*
X46658476Y-9515238D02*
X46753716Y-9420000D01*
D10*
X46610856Y-9610476D02*
X46658476Y-9515238D01*
D10*
X46610856Y-9753333D02*
X46610856Y-9610476D01*
D10*
X46658476Y-9848571D02*
X46610856Y-9753333D01*
D10*
X46753716Y-9896190D02*
X46658476Y-9848571D01*
D10*
X47087048Y-9848571D02*
X46944192Y-9896190D01*
D10*
X47134668Y-9800952D02*
X47087048Y-9848571D01*
D10*
X47182284Y-9705714D02*
X47134668Y-9800952D01*
D10*
X47182284Y-9515238D02*
X47182284Y-9705714D01*
D10*
X47134668Y-9420000D02*
X47182284Y-9515238D01*
D10*
X44848952Y-7356190D02*
X44801332Y-6356190D01*
D10*
X44896572Y-7260952D02*
X44848952Y-6356190D01*
D10*
X44848952Y-7356190D02*
X45468000Y-6356190D01*
D10*
X44991808Y-6356190D02*
X44706096Y-6356190D01*
D10*
X45563240Y-6356190D02*
X45277524Y-6356190D01*
D10*
X46372760Y-6451428D02*
X46325144Y-6451428D01*
D10*
X46420380Y-6356190D02*
X46372760Y-6451428D01*
D10*
X46372760Y-6641905D02*
X46420380Y-6356190D01*
D10*
X46372760Y-6546666D02*
X46372760Y-6641905D01*
D10*
X46325144Y-6451428D02*
X46372760Y-6546666D01*
D10*
X46277524Y-6403809D02*
X46325144Y-6451428D01*
D10*
X46182284Y-6356190D02*
X46277524Y-6403809D01*
D10*
X46039428Y-6356190D02*
X46182284Y-6356190D01*
D10*
X45896572Y-6403809D02*
X46039428Y-6356190D01*
D10*
X45801332Y-6499047D02*
X45896572Y-6403809D01*
D10*
X45706096Y-6641905D02*
X45801332Y-6499047D01*
D10*
X45658476Y-6784762D02*
X45706096Y-6641905D01*
D10*
X45610856Y-6975238D02*
X45658476Y-6784762D01*
D10*
X45610856Y-7118095D02*
X45610856Y-6975238D01*
D10*
X45658476Y-7260952D02*
X45610856Y-7118095D01*
D10*
X45706096Y-7308571D02*
X45658476Y-7260952D01*
D10*
X45848952Y-7356190D02*
X45706096Y-7308571D01*
D10*
X45991808Y-7356190D02*
X45848952Y-7356190D01*
D10*
X46087048Y-7308571D02*
X45991808Y-7356190D01*
D10*
X46182284Y-7213333D02*
X46087048Y-7308571D01*
D10*
X46229904Y-7118095D02*
X46182284Y-7213333D01*
D10*
X45944192Y-6403809D02*
X46039428Y-6356190D01*
D10*
X45848952Y-6499047D02*
X45944192Y-6403809D01*
D10*
X45753716Y-6641905D02*
X45848952Y-6499047D01*
D10*
X45706096Y-6784762D02*
X45753716Y-6641905D01*
D10*
X45658476Y-6975238D02*
X45706096Y-6784762D01*
D10*
X45658476Y-7118095D02*
X45658476Y-6975238D01*
D10*
X45706096Y-7260952D02*
X45658476Y-7118095D01*
D10*
X45753716Y-7308571D02*
X45706096Y-7260952D01*
D10*
X45848952Y-7356190D02*
X45753716Y-7308571D01*
D10*
X47372760Y-6451428D02*
X47325144Y-6451428D01*
D10*
X47420380Y-6356190D02*
X47372760Y-6451428D01*
D10*
X47372760Y-6641905D02*
X47420380Y-6356190D01*
D10*
X47372760Y-6546666D02*
X47372760Y-6641905D01*
D10*
X47325144Y-6451428D02*
X47372760Y-6546666D01*
D10*
X47277524Y-6403809D02*
X47325144Y-6451428D01*
D10*
X47182284Y-6356190D02*
X47277524Y-6403809D01*
D10*
X47039428Y-6356190D02*
X47182284Y-6356190D01*
D10*
X46896572Y-6403809D02*
X47039428Y-6356190D01*
D10*
X46801332Y-6499047D02*
X46896572Y-6403809D01*
D10*
X46706096Y-6641905D02*
X46801332Y-6499047D01*
D10*
X46658476Y-6784762D02*
X46706096Y-6641905D01*
D10*
X46610856Y-6975238D02*
X46658476Y-6784762D01*
D10*
X46610856Y-7118095D02*
X46610856Y-6975238D01*
D10*
X46658476Y-7260952D02*
X46610856Y-7118095D01*
D10*
X46706096Y-7308571D02*
X46658476Y-7260952D01*
D10*
X46848952Y-7356190D02*
X46706096Y-7308571D01*
D10*
X46991808Y-7356190D02*
X46848952Y-7356190D01*
D10*
X47087048Y-7308571D02*
X46991808Y-7356190D01*
D10*
X47182284Y-7213333D02*
X47087048Y-7308571D01*
D10*
X47229904Y-7118095D02*
X47182284Y-7213333D01*
D10*
X46944192Y-6403809D02*
X47039428Y-6356190D01*
D10*
X46848952Y-6499047D02*
X46944192Y-6403809D01*
D10*
X46753716Y-6641905D02*
X46848952Y-6499047D01*
D10*
X46706096Y-6784762D02*
X46753716Y-6641905D01*
D10*
X46658476Y-6975238D02*
X46706096Y-6784762D01*
D10*
X46658476Y-7118095D02*
X46658476Y-6975238D01*
D10*
X46706096Y-7260952D02*
X46658476Y-7118095D01*
D10*
X46753716Y-7308571D02*
X46706096Y-7260952D01*
D10*
X46848952Y-7356190D02*
X46753716Y-7308571D01*
D11*
X-33476190Y22035714D02*
X-33702380Y22035714D01*
D11*
X-33250000Y22488096D02*
X-33476190Y22035714D01*
D11*
X-33476190Y21130952D02*
X-33250000Y22488096D01*
D11*
X-33476190Y21583334D02*
X-33476190Y21130952D01*
D11*
X-33702380Y22035714D02*
X-33476190Y21583334D01*
D11*
X-33928572Y22261904D02*
X-33702380Y22035714D01*
D11*
X-34607144Y22488096D02*
X-33928572Y22261904D01*
D11*
X-35511904Y22488096D02*
X-34607144Y22488096D01*
D11*
X-36190476Y22261904D02*
X-35511904Y22488096D01*
D11*
X-36642856Y21809524D02*
X-36190476Y22261904D01*
D11*
X-36642856Y21357142D02*
X-36642856Y21809524D01*
D11*
X-36416668Y20904762D02*
X-36642856Y21357142D01*
D11*
X-36190476Y20678572D02*
X-36416668Y20904762D01*
D11*
X-34607144Y19773810D02*
X-36190476Y20678572D01*
D11*
X-34154760Y19321428D02*
X-34607144Y19773810D01*
D11*
X-36190476Y20904762D02*
X-36642856Y21357142D01*
D11*
X-34607144Y20000000D02*
X-36190476Y20904762D01*
D11*
X-34380952Y19773810D02*
X-34607144Y20000000D01*
D11*
X-34154760Y19321428D02*
X-34380952Y19773810D01*
D11*
X-34154760Y18642858D02*
X-34154760Y19321428D01*
D11*
X-34380952Y18190476D02*
X-34154760Y18642858D01*
D11*
X-34607144Y17964286D02*
X-34380952Y18190476D01*
D11*
X-35285716Y17738096D02*
X-34607144Y17964286D01*
D11*
X-36190476Y17738096D02*
X-35285716Y17738096D01*
D11*
X-36869048Y17964286D02*
X-36190476Y17738096D01*
D11*
X-37095240Y18190476D02*
X-36869048Y17964286D01*
D11*
X-37321428Y18642858D02*
X-37095240Y18190476D01*
D11*
X-37321428Y19095238D02*
X-37321428Y18642858D01*
D11*
X-37547620Y17738096D02*
X-37321428Y19095238D01*
D11*
X-37321428Y18190476D02*
X-37547620Y17738096D01*
D11*
X-37095240Y18190476D02*
X-37321428Y18190476D01*
D11*
X-32345238Y20452380D02*
X-32571428Y20000000D01*
D11*
X-31892858Y20904762D02*
X-32345238Y20452380D01*
D11*
X-31214286Y20904762D02*
X-31892858Y20904762D01*
D11*
X-30988096Y20678572D02*
X-31214286Y20904762D01*
D11*
X-30988096Y20226190D02*
X-30988096Y20678572D01*
D11*
X-31214286Y19321428D02*
X-30988096Y20226190D01*
D11*
X-31666668Y17738096D02*
X-31214286Y19321428D01*
D11*
X-31214286Y20678572D02*
X-31440476Y20904762D01*
D11*
X-31214286Y20226190D02*
X-31214286Y20678572D01*
D11*
X-31440476Y19321428D02*
X-31214286Y20226190D01*
D11*
X-31892858Y17738096D02*
X-31440476Y19321428D01*
D11*
X-30761904Y20226190D02*
X-31214286Y19321428D01*
D11*
X-30309524Y20678572D02*
X-30761904Y20226190D01*
D11*
X-29857144Y20904762D02*
X-30309524Y20678572D01*
D11*
X-29404762Y20904762D02*
X-29857144Y20904762D01*
D11*
X-28952380Y20678572D02*
X-29404762Y20904762D01*
D11*
X-28726192Y20452380D02*
X-28952380Y20678572D01*
D11*
X-28726192Y20000000D02*
X-28726192Y20452380D01*
D11*
X-29404762Y17738096D02*
X-28726192Y20000000D01*
D11*
X-28952380Y20452380D02*
X-29404762Y20904762D01*
D11*
X-28952380Y20000000D02*
X-28952380Y20452380D01*
D11*
X-29630952Y17738096D02*
X-28952380Y20000000D01*
D11*
X-28500000Y20226190D02*
X-28952380Y19321428D01*
D11*
X-28047620Y20678572D02*
X-28500000Y20226190D01*
D11*
X-27595238Y20904762D02*
X-28047620Y20678572D01*
D11*
X-27142858Y20904762D02*
X-27595238Y20904762D01*
D11*
X-26690476Y20678572D02*
X-27142858Y20904762D01*
D11*
X-26464286Y20452380D02*
X-26690476Y20678572D01*
D11*
X-26464286Y20000000D02*
X-26464286Y20452380D01*
D11*
X-26916668Y18642858D02*
X-26464286Y20000000D01*
D11*
X-26916668Y17964286D02*
X-26916668Y18642858D01*
D11*
X-26690476Y17738096D02*
X-26916668Y17964286D01*
D11*
X-26690476Y20452380D02*
X-27142858Y20904762D01*
D11*
X-26690476Y20000000D02*
X-26690476Y20452380D01*
D11*
X-27142858Y18642858D02*
X-26690476Y20000000D01*
D11*
X-27142858Y17964286D02*
X-27142858Y18642858D01*
D11*
X-26916668Y17738096D02*
X-27142858Y17964286D01*
D11*
X-26238096Y17738096D02*
X-26916668Y17738096D01*
D11*
X-25785716Y18190476D02*
X-26238096Y17738096D01*
D11*
X-25559524Y18642858D02*
X-25785716Y18190476D01*
D11*
X-22166668Y19321428D02*
X-21714286Y20904762D01*
D11*
X-22392858Y18416666D02*
X-22166668Y19321428D01*
D11*
X-22392858Y17964286D02*
X-22392858Y18416666D01*
D11*
X-22166668Y17738096D02*
X-22392858Y17964286D01*
D11*
X-21488096Y17738096D02*
X-22166668Y17738096D01*
D11*
X-21035714Y18190476D02*
X-21488096Y17738096D01*
D11*
X-20809524Y18642858D02*
X-21035714Y18190476D01*
D11*
X-21940476Y19321428D02*
X-21488096Y20904762D01*
D11*
X-22166668Y18416666D02*
X-21940476Y19321428D01*
D11*
X-22166668Y17964286D02*
X-22166668Y18416666D01*
D11*
X-21940476Y17738096D02*
X-22166668Y17964286D01*
D11*
X-22166668Y20000000D02*
X-22166668Y19321428D01*
D11*
X-22392858Y20678572D02*
X-22166668Y20000000D01*
D11*
X-22845240Y20904762D02*
X-22392858Y20678572D01*
D11*
X-23297620Y20904762D02*
X-22845240Y20904762D01*
D11*
X-23976192Y20678572D02*
X-23297620Y20904762D01*
D11*
X-24428572Y20000000D02*
X-23976192Y20678572D01*
D11*
X-24654762Y19321428D02*
X-24428572Y20000000D01*
D11*
X-24654762Y18642858D02*
X-24654762Y19321428D01*
D11*
X-24428572Y18190476D02*
X-24654762Y18642858D01*
D11*
X-24202380Y17964286D02*
X-24428572Y18190476D01*
D11*
X-23750000Y17738096D02*
X-24202380Y17964286D01*
D11*
X-23297620Y17738096D02*
X-23750000Y17738096D01*
D11*
X-22845240Y17964286D02*
X-23297620Y17738096D01*
D11*
X-22392858Y18642858D02*
X-22845240Y17964286D01*
D11*
X-22166668Y19321428D02*
X-22392858Y18642858D01*
D11*
X-23750000Y20678572D02*
X-23297620Y20904762D01*
D11*
X-24202380Y20000000D02*
X-23750000Y20678572D01*
D11*
X-24428572Y19321428D02*
X-24202380Y20000000D01*
D11*
X-24428572Y18416666D02*
X-24428572Y19321428D01*
D11*
X-24202380Y17964286D02*
X-24428572Y18416666D01*
D11*
X-20130952Y20452380D02*
X-20357144Y20000000D01*
D11*
X-19678572Y20904762D02*
X-20130952Y20452380D01*
D11*
X-19000000Y20904762D02*
X-19678572Y20904762D01*
D11*
X-18773810Y20678572D02*
X-19000000Y20904762D01*
D11*
X-18773810Y20226190D02*
X-18773810Y20678572D01*
D11*
X-19000000Y19321428D02*
X-18773810Y20226190D01*
D11*
X-19452382Y17738096D02*
X-19000000Y19321428D01*
D11*
X-19000000Y20678572D02*
X-19226192Y20904762D01*
D11*
X-19000000Y20226190D02*
X-19000000Y20678572D01*
D11*
X-19226192Y19321428D02*
X-19000000Y20226190D01*
D11*
X-19678572Y17738096D02*
X-19226192Y19321428D01*
D11*
X-18547620Y20226190D02*
X-19000000Y19321428D01*
D11*
X-18095238Y20678572D02*
X-18547620Y20226190D01*
D11*
X-17642858Y20904762D02*
X-18095238Y20678572D01*
D11*
X-17190476Y20904762D02*
X-17642858Y20904762D01*
D11*
X-16964286Y20678572D02*
X-17190476Y20904762D01*
D11*
X-16964286Y20452380D02*
X-16964286Y20678572D01*
D11*
X-17190476Y20226190D02*
X-16964286Y20452380D01*
D11*
X-17416668Y20452380D02*
X-17190476Y20226190D01*
D11*
X-17190476Y20678572D02*
X-17416668Y20452380D01*
D11*
X-15607144Y19321428D02*
X-14702382Y22488096D01*
D11*
X-15833334Y18416666D02*
X-15607144Y19321428D01*
D11*
X-15833334Y17964286D02*
X-15833334Y18416666D01*
D11*
X-15607144Y17738096D02*
X-15833334Y17964286D01*
D11*
X-14928572Y17738096D02*
X-15607144Y17738096D01*
D11*
X-14476192Y18190476D02*
X-14928572Y17738096D01*
D11*
X-14250000Y18642858D02*
X-14476192Y18190476D01*
D11*
X-15380954Y19321428D02*
X-14476192Y22488096D01*
D11*
X-15607144Y18416666D02*
X-15380954Y19321428D01*
D11*
X-15607144Y17964286D02*
X-15607144Y18416666D01*
D11*
X-15380954Y17738096D02*
X-15607144Y17964286D01*
D11*
X-14023810Y20904762D02*
X-16059524Y20904762D01*
D11*
X-8595240Y20000000D02*
X-8595240Y20226190D01*
D11*
X-8369048Y20000000D02*
X-8595240Y20000000D01*
D11*
X-8369048Y20226190D02*
X-8369048Y20000000D01*
D11*
X-8595240Y20678572D02*
X-8369048Y20226190D01*
D11*
X-9047620Y20904762D02*
X-8595240Y20678572D01*
D11*
X-9726192Y20904762D02*
X-9047620Y20904762D01*
D11*
X-10404762Y20678572D02*
X-9726192Y20904762D01*
D11*
X-10857144Y20000000D02*
X-10404762Y20678572D01*
D11*
X-11083334Y19321428D02*
X-10857144Y20000000D01*
D11*
X-11083334Y18642858D02*
X-11083334Y19321428D01*
D11*
X-10857144Y18190476D02*
X-11083334Y18642858D01*
D11*
X-10630954Y17964286D02*
X-10857144Y18190476D01*
D11*
X-10178572Y17738096D02*
X-10630954Y17964286D01*
D11*
X-9726192Y17738096D02*
X-10178572Y17738096D01*
D11*
X-9047620Y17964286D02*
X-9726192Y17738096D01*
D11*
X-8595240Y18642858D02*
X-9047620Y17964286D01*
D11*
X-10178572Y20678572D02*
X-9726192Y20904762D01*
D11*
X-10630954Y20000000D02*
X-10178572Y20678572D01*
D11*
X-10857144Y19321428D02*
X-10630954Y20000000D01*
D11*
X-10857144Y18416666D02*
X-10857144Y19321428D01*
D11*
X-10630954Y17964286D02*
X-10857144Y18416666D01*
D11*
X-4523810Y19321428D02*
X-4071428Y20904762D01*
D11*
X-4750002Y18416666D02*
X-4523810Y19321428D01*
D11*
X-4750002Y17964286D02*
X-4750002Y18416666D01*
D11*
X-4523810Y17738096D02*
X-4750002Y17964286D01*
D11*
X-3845240Y17738096D02*
X-4523810Y17738096D01*
D11*
X-3392860Y18190476D02*
X-3845240Y17738096D01*
D11*
X-3166668Y18642858D02*
X-3392860Y18190476D01*
D11*
X-4297620Y19321428D02*
X-3845240Y20904762D01*
D11*
X-4523810Y18416666D02*
X-4297620Y19321428D01*
D11*
X-4523810Y17964286D02*
X-4523810Y18416666D01*
D11*
X-4297620Y17738096D02*
X-4523810Y17964286D01*
D11*
X-4523810Y20000000D02*
X-4523810Y19321428D01*
D11*
X-4750002Y20678572D02*
X-4523810Y20000000D01*
D11*
X-5202382Y20904762D02*
X-4750002Y20678572D01*
D11*
X-5654762Y20904762D02*
X-5202382Y20904762D01*
D11*
X-6333334Y20678572D02*
X-5654762Y20904762D01*
D11*
X-6785716Y20000000D02*
X-6333334Y20678572D01*
D11*
X-7011906Y19321428D02*
X-6785716Y20000000D01*
D11*
X-7011906Y18642858D02*
X-7011906Y19321428D01*
D11*
X-6785716Y18190476D02*
X-7011906Y18642858D01*
D11*
X-6559524Y17964286D02*
X-6785716Y18190476D01*
D11*
X-6107144Y17738096D02*
X-6559524Y17964286D01*
D11*
X-5654762Y17738096D02*
X-6107144Y17738096D01*
D11*
X-5202382Y17964286D02*
X-5654762Y17738096D01*
D11*
X-4750002Y18642858D02*
X-5202382Y17964286D01*
D11*
X-4523810Y19321428D02*
X-4750002Y18642858D01*
D11*
X-6107144Y20678572D02*
X-5654762Y20904762D01*
D11*
X-6559524Y20000000D02*
X-6107144Y20678572D01*
D11*
X-6785716Y19321428D02*
X-6559524Y20000000D01*
D11*
X-6785716Y18416666D02*
X-6785716Y19321428D01*
D11*
X-6559524Y17964286D02*
X-6785716Y18416666D01*
D11*
X-2488096Y20452380D02*
X-2714288Y20000000D01*
D11*
X-2035716Y20904762D02*
X-2488096Y20452380D01*
D11*
X-1357144Y20904762D02*
X-2035716Y20904762D01*
D11*
X-1130952Y20678572D02*
X-1357144Y20904762D01*
D11*
X-1130952Y20226190D02*
X-1130952Y20678572D01*
D11*
X-1357144Y19321428D02*
X-1130952Y20226190D01*
D11*
X-1809524Y17738096D02*
X-1357144Y19321428D01*
D11*
X-1357144Y20678572D02*
X-1583336Y20904762D01*
D11*
X-1357144Y20226190D02*
X-1357144Y20678572D01*
D11*
X-1583336Y19321428D02*
X-1357144Y20226190D01*
D11*
X-2035716Y17738096D02*
X-1583336Y19321428D01*
D11*
X-904764Y20226190D02*
X-1357144Y19321428D01*
D11*
X-452384Y20678572D02*
X-904764Y20226190D01*
D11*
X0Y20904762D02*
X-452384Y20678572D01*
D11*
X452380Y20904762D02*
X0Y20904762D01*
D11*
X678572Y20678572D02*
X452380Y20904762D01*
D11*
X678572Y20452380D02*
X678572Y20678572D01*
D11*
X452380Y20226190D02*
X678572Y20452380D01*
D11*
X226188Y20452380D02*
X452380Y20226190D01*
D11*
X452380Y20678572D02*
X226188Y20452380D01*
D11*
X4071428Y19321428D02*
X4976188Y22488096D01*
D11*
X3845236Y18416666D02*
X4071428Y19321428D01*
D11*
X3845236Y17964286D02*
X3845236Y18416666D01*
D11*
X4071428Y17738096D02*
X3845236Y17964286D01*
D11*
X4750000Y17738096D02*
X4071428Y17738096D01*
D11*
X5202380Y18190476D02*
X4750000Y17738096D01*
D11*
X5428568Y18642858D02*
X5202380Y18190476D01*
D11*
X4297616Y19321428D02*
X5202380Y22488096D01*
D11*
X4071428Y18416666D02*
X4297616Y19321428D01*
D11*
X4071428Y17964286D02*
X4071428Y18416666D01*
D11*
X4297616Y17738096D02*
X4071428Y17964286D01*
D11*
X4071428Y20000000D02*
X4071428Y19321428D01*
D11*
X3845236Y20678572D02*
X4071428Y20000000D01*
D11*
X3392856Y20904762D02*
X3845236Y20678572D01*
D11*
X2940476Y20904762D02*
X3392856Y20904762D01*
D11*
X2261904Y20678572D02*
X2940476Y20904762D01*
D11*
X1809524Y20000000D02*
X2261904Y20678572D01*
D11*
X1583332Y19321428D02*
X1809524Y20000000D01*
D11*
X1583332Y18642858D02*
X1583332Y19321428D01*
D11*
X1809524Y18190476D02*
X1583332Y18642858D01*
D11*
X2035712Y17964286D02*
X1809524Y18190476D01*
D11*
X2488092Y17738096D02*
X2035712Y17964286D01*
D11*
X2940476Y17738096D02*
X2488092Y17738096D01*
D11*
X3392856Y17964286D02*
X2940476Y17738096D01*
D11*
X3845236Y18642858D02*
X3392856Y17964286D01*
D11*
X4071428Y19321428D02*
X3845236Y18642858D01*
D11*
X2488092Y20678572D02*
X2940476Y20904762D01*
D11*
X2035712Y20000000D02*
X2488092Y20678572D01*
D11*
X1809524Y19321428D02*
X2035712Y20000000D01*
D11*
X1809524Y18416666D02*
X1809524Y19321428D01*
D11*
X2035712Y17964286D02*
X1809524Y18416666D01*
D11*
X5202380Y22488096D02*
X4297616Y22488096D01*
D11*
X8369048Y19547620D02*
X9273808Y22488096D01*
D11*
X8369048Y18869048D02*
X8369048Y19547620D01*
D11*
X8595236Y18190476D02*
X8369048Y18869048D01*
D11*
X8821428Y17964286D02*
X8595236Y18190476D01*
D11*
X8595236Y19547620D02*
X9500000Y22488096D01*
D11*
X8821428Y20226190D02*
X8595236Y19547620D01*
D11*
X9273808Y20678572D02*
X8821428Y20226190D01*
D11*
X9726188Y20904762D02*
X9273808Y20678572D01*
D11*
X10178568Y20904762D02*
X9726188Y20904762D01*
D11*
X10630952Y20678572D02*
X10178568Y20904762D01*
D11*
X10857140Y20452380D02*
X10630952Y20678572D01*
D11*
X11083332Y20000000D02*
X10857140Y20452380D01*
D11*
X11083332Y19321428D02*
X11083332Y20000000D01*
D11*
X10857140Y18642858D02*
X11083332Y19321428D01*
D11*
X10404760Y17964286D02*
X10857140Y18642858D01*
D11*
X9726188Y17738096D02*
X10404760Y17964286D01*
D11*
X9273808Y17738096D02*
X9726188Y17738096D01*
D11*
X8821428Y17964286D02*
X9273808Y17738096D01*
D11*
X8595236Y18642858D02*
X8821428Y17964286D01*
D11*
X8595236Y19547620D02*
X8595236Y18642858D01*
D11*
X10857140Y20226190D02*
X10630952Y20678572D01*
D11*
X10857140Y19321428D02*
X10857140Y20226190D01*
D11*
X10630952Y18642858D02*
X10857140Y19321428D01*
D11*
X10178568Y17964286D02*
X10630952Y18642858D01*
D11*
X9726188Y17738096D02*
X10178568Y17964286D01*
D11*
X9500000Y22488096D02*
X8595236Y22488096D01*
D11*
X12214284Y20452380D02*
X11988092Y20000000D01*
D11*
X12666664Y20904762D02*
X12214284Y20452380D01*
D11*
X13345236Y20904762D02*
X12666664Y20904762D01*
D11*
X13571428Y20678572D02*
X13345236Y20904762D01*
D11*
X13571428Y20226190D02*
X13571428Y20678572D01*
D11*
X13345236Y19321428D02*
X13571428Y20226190D01*
D11*
X12892856Y17738096D02*
X13345236Y19321428D01*
D11*
X13345236Y20678572D02*
X13119044Y20904762D01*
D11*
X13345236Y20226190D02*
X13345236Y20678572D01*
D11*
X13119044Y19321428D02*
X13345236Y20226190D01*
D11*
X12666664Y17738096D02*
X13119044Y19321428D01*
D11*
X13797616Y20226190D02*
X13345236Y19321428D01*
D11*
X14250000Y20678572D02*
X13797616Y20226190D01*
D11*
X14702380Y20904762D02*
X14250000Y20678572D01*
D11*
X15154760Y20904762D02*
X14702380Y20904762D01*
D11*
X15380952Y20678572D02*
X15154760Y20904762D01*
D11*
X15380952Y20452380D02*
X15380952Y20678572D01*
D11*
X15154760Y20226190D02*
X15380952Y20452380D01*
D11*
X14928568Y20452380D02*
X15154760Y20226190D01*
D11*
X15154760Y20678572D02*
X14928568Y20452380D01*
D11*
X17416664Y19095238D02*
X16511904Y18869048D01*
D11*
X18095236Y19321428D02*
X17416664Y19095238D01*
D11*
X18773808Y19773810D02*
X18095236Y19321428D01*
D11*
X19000000Y20226190D02*
X18773808Y19773810D01*
D11*
X18773808Y20678572D02*
X19000000Y20226190D01*
D11*
X18321428Y20904762D02*
X18773808Y20678572D01*
D11*
X17642856Y20904762D02*
X18321428Y20904762D01*
D11*
X16964284Y20678572D02*
X17642856Y20904762D01*
D11*
X16511904Y20000000D02*
X16964284Y20678572D01*
D11*
X16285712Y19321428D02*
X16511904Y20000000D01*
D11*
X16285712Y18642858D02*
X16285712Y19321428D01*
D11*
X16511904Y18190476D02*
X16285712Y18642858D01*
D11*
X16738092Y17964286D02*
X16511904Y18190476D01*
D11*
X17190476Y17738096D02*
X16738092Y17964286D01*
D11*
X17642856Y17738096D02*
X17190476Y17738096D01*
D11*
X18321428Y17964286D02*
X17642856Y17738096D01*
D11*
X18773808Y18416666D02*
X18321428Y17964286D01*
D11*
X17190476Y20678572D02*
X17642856Y20904762D01*
D11*
X16738092Y20000000D02*
X17190476Y20678572D01*
D11*
X16511904Y19321428D02*
X16738092Y20000000D01*
D11*
X16511904Y18416666D02*
X16511904Y19321428D01*
D11*
X16738092Y17964286D02*
X16511904Y18416666D01*
D11*
X22845236Y19321428D02*
X23297616Y20904762D01*
D11*
X22619044Y18416666D02*
X22845236Y19321428D01*
D11*
X22619044Y17964286D02*
X22619044Y18416666D01*
D11*
X22845236Y17738096D02*
X22619044Y17964286D01*
D11*
X23523808Y17738096D02*
X22845236Y17738096D01*
D11*
X23976188Y18190476D02*
X23523808Y17738096D01*
D11*
X24202380Y18642858D02*
X23976188Y18190476D01*
D11*
X23071428Y19321428D02*
X23523808Y20904762D01*
D11*
X22845236Y18416666D02*
X23071428Y19321428D01*
D11*
X22845236Y17964286D02*
X22845236Y18416666D01*
D11*
X23071428Y17738096D02*
X22845236Y17964286D01*
D11*
X22845236Y20000000D02*
X22845236Y19321428D01*
D11*
X22619044Y20678572D02*
X22845236Y20000000D01*
D11*
X22166664Y20904762D02*
X22619044Y20678572D01*
D11*
X21714284Y20904762D02*
X22166664Y20904762D01*
D11*
X21035712Y20678572D02*
X21714284Y20904762D01*
D11*
X20583332Y20000000D02*
X21035712Y20678572D01*
D11*
X20357140Y19321428D02*
X20583332Y20000000D01*
D11*
X20357140Y18642858D02*
X20357140Y19321428D01*
D11*
X20583332Y18190476D02*
X20357140Y18642858D01*
D11*
X20809520Y17964286D02*
X20583332Y18190476D01*
D11*
X21261904Y17738096D02*
X20809520Y17964286D01*
D11*
X21714284Y17738096D02*
X21261904Y17738096D01*
D11*
X22166664Y17964286D02*
X21714284Y17738096D01*
D11*
X22619044Y18642858D02*
X22166664Y17964286D01*
D11*
X22845236Y19321428D02*
X22619044Y18642858D01*
D11*
X21261904Y20678572D02*
X21714284Y20904762D01*
D11*
X20809520Y20000000D02*
X21261904Y20678572D01*
D11*
X20583332Y19321428D02*
X20809520Y20000000D01*
D11*
X20583332Y18416666D02*
X20583332Y19321428D01*
D11*
X20809520Y17964286D02*
X20583332Y18416666D01*
D11*
X24880952Y17738096D02*
X26238092Y22488096D01*
D11*
X25107140Y17738096D02*
X26464284Y22488096D01*
D11*
X27821428Y20452380D02*
X28047616Y20678572D01*
D11*
X28047616Y20226190D02*
X27821428Y20452380D01*
D11*
X28273808Y20452380D02*
X28047616Y20226190D01*
D11*
X28273808Y20678572D02*
X28273808Y20452380D01*
D11*
X28047616Y20904762D02*
X28273808Y20678572D01*
D11*
X27821428Y20904762D02*
X28047616Y20904762D01*
D11*
X27369044Y20678572D02*
X27821428Y20904762D01*
D11*
X26464284Y19773810D02*
X27369044Y20678572D01*
D11*
X26011904Y19547620D02*
X26464284Y19773810D01*
D11*
X25559520Y19547620D02*
X26011904Y19547620D01*
D11*
X26464284Y19321428D02*
X26011904Y19547620D01*
D11*
X26916664Y17964286D02*
X26464284Y19321428D01*
D11*
X27142856Y17738096D02*
X26916664Y17964286D01*
D11*
X26238092Y19321428D02*
X26011904Y19547620D01*
D11*
X26690476Y17964286D02*
X26238092Y19321428D01*
D11*
X26916664Y17738096D02*
X26690476Y17964286D01*
D11*
X27369044Y17738096D02*
X26916664Y17738096D01*
D11*
X27821428Y17964286D02*
X27369044Y17738096D01*
D11*
X28273808Y18642858D02*
X27821428Y17964286D01*
D11*
X26464284Y22488096D02*
X25559520Y22488096D01*
D11*
X30309520Y20678572D02*
X30988096Y20904762D01*
D11*
X29857144Y20000000D02*
X30309520Y20678572D01*
D11*
X29630952Y19321428D02*
X29857144Y20000000D01*
D11*
X29630952Y18642858D02*
X29630952Y19321428D01*
D11*
X29857144Y18190476D02*
X29630952Y18642858D01*
D11*
X30083328Y17964286D02*
X29857144Y18190476D01*
D11*
X30535712Y17738096D02*
X30083328Y17964286D01*
D11*
X30988096Y17738096D02*
X30535712Y17738096D01*
D11*
X31666664Y17964286D02*
X30988096Y17738096D01*
D11*
X32119048Y18642858D02*
X31666664Y17964286D01*
D11*
X32345232Y19321428D02*
X32119048Y18642858D01*
D11*
X32345232Y20000000D02*
X32345232Y19321428D01*
D11*
X32119048Y20452380D02*
X32345232Y20000000D01*
D11*
X31892856Y20678572D02*
X32119048Y20452380D01*
D11*
X31440472Y20904762D02*
X31892856Y20678572D01*
D11*
X30988096Y20904762D02*
X31440472Y20904762D01*
D11*
X30535712Y20678572D02*
X30988096Y20904762D01*
D11*
X30083328Y20000000D02*
X30535712Y20678572D01*
D11*
X29857144Y19321428D02*
X30083328Y20000000D01*
D11*
X29857144Y18416666D02*
X29857144Y19321428D01*
D11*
X30083328Y17964286D02*
X29857144Y18416666D01*
D11*
X31440472Y17964286D02*
X30988096Y17738096D01*
D11*
X31892856Y18642858D02*
X31440472Y17964286D01*
D11*
X32119048Y19321428D02*
X31892856Y18642858D01*
D11*
X32119048Y20226190D02*
X32119048Y19321428D01*
D11*
X31892856Y20678572D02*
X32119048Y20226190D01*
D11*
X33476192Y20452380D02*
X33250000Y20000000D01*
D11*
X33928568Y20904762D02*
X33476192Y20452380D01*
D11*
X34607144Y20904762D02*
X33928568Y20904762D01*
D11*
X34833328Y20678572D02*
X34607144Y20904762D01*
D11*
X34833328Y20000000D02*
X34833328Y20678572D01*
D11*
X34380952Y18642858D02*
X34833328Y20000000D01*
D11*
X34380952Y18190476D02*
X34380952Y18642858D01*
D11*
X34833328Y17738096D02*
X34380952Y18190476D01*
D11*
X34607144Y20678572D02*
X34380952Y20904762D01*
D11*
X34607144Y20000000D02*
X34607144Y20678572D01*
D11*
X34154760Y18642858D02*
X34607144Y20000000D01*
D11*
X34154760Y18190476D02*
X34154760Y18642858D01*
D11*
X34380952Y17964286D02*
X34154760Y18190476D01*
D11*
X34833328Y17738096D02*
X34380952Y17964286D01*
D11*
X35285712Y17738096D02*
X34833328Y17738096D01*
D11*
X35738096Y17964286D02*
X35285712Y17738096D01*
D11*
X36190472Y18416666D02*
X35738096Y17964286D01*
D11*
X36642856Y19321428D02*
X36190472Y18416666D01*
D11*
X36642856Y19321428D02*
X37095232Y20904762D01*
D11*
X36416664Y18416666D02*
X36642856Y19321428D01*
D11*
X36416664Y17964286D02*
X36416664Y18416666D01*
D11*
X36642856Y17738096D02*
X36416664Y17964286D01*
D11*
X37321424Y17738096D02*
X36642856Y17738096D01*
D11*
X37773808Y18190476D02*
X37321424Y17738096D01*
D11*
X38000000Y18642858D02*
X37773808Y18190476D01*
D11*
X36869048Y19321428D02*
X37321424Y20904762D01*
D11*
X36642856Y18416666D02*
X36869048Y19321428D01*
D11*
X36642856Y17964286D02*
X36642856Y18416666D01*
D11*
X36869048Y17738096D02*
X36642856Y17964286D01*
D11*
X39357144Y19321428D02*
X40261904Y22488096D01*
D11*
X39130952Y18416666D02*
X39357144Y19321428D01*
D11*
X39130952Y17964286D02*
X39130952Y18416666D01*
D11*
X39357144Y17738096D02*
X39130952Y17964286D01*
D11*
X40035712Y17738096D02*
X39357144Y17738096D01*
D11*
X40488096Y18190476D02*
X40035712Y17738096D01*
D11*
X40714280Y18642858D02*
X40488096Y18190476D01*
D11*
X39583328Y19321428D02*
X40488096Y22488096D01*
D11*
X39357144Y18416666D02*
X39583328Y19321428D01*
D11*
X39357144Y17964286D02*
X39357144Y18416666D01*
D11*
X39583328Y17738096D02*
X39357144Y17964286D01*
D11*
X40940472Y20904762D02*
X38904760Y20904762D01*
D10*
X44372760Y-4816190D02*
X44658476Y-3816190D01*
D10*
X44420380Y-4816190D02*
X44706096Y-3816190D01*
D10*
X45039428Y-3816190D02*
X44515620Y-3816190D01*
D10*
X45182284Y-3863809D02*
X45039428Y-3816190D01*
D10*
X45229904Y-3959047D02*
X45182284Y-3863809D01*
D10*
X45229904Y-4054285D02*
X45229904Y-3959047D01*
D10*
X45182284Y-4197143D02*
X45229904Y-4054285D01*
D10*
X45134668Y-4244762D02*
X45182284Y-4197143D01*
D10*
X44991808Y-4292381D02*
X45134668Y-4244762D01*
D10*
X44563240Y-4292381D02*
X44991808Y-4292381D01*
D10*
X45134668Y-3863809D02*
X45039428Y-3816190D01*
D10*
X45182284Y-3959047D02*
X45134668Y-3863809D01*
D10*
X45182284Y-4054285D02*
X45182284Y-3959047D01*
D10*
X45134668Y-4197143D02*
X45182284Y-4054285D01*
D10*
X45087048Y-4244762D02*
X45134668Y-4197143D01*
D10*
X44991808Y-4292381D02*
X45087048Y-4244762D01*
D10*
X44896572Y-4340000D02*
X44801332Y-4292381D01*
D10*
X44944192Y-4387619D02*
X44896572Y-4340000D01*
D10*
X44991808Y-4768571D02*
X44944192Y-4387619D01*
D10*
X45039428Y-4816190D02*
X44991808Y-4768571D01*
D10*
X45134668Y-4816190D02*
X45039428Y-4816190D01*
D10*
X45182284Y-4720952D02*
X45134668Y-4816190D01*
D10*
X45182284Y-4673333D02*
X45182284Y-4720952D01*
D10*
X45039428Y-4720952D02*
X44944192Y-4387619D01*
D10*
X45087048Y-4768571D02*
X45039428Y-4720952D01*
D10*
X45134668Y-4768571D02*
X45087048Y-4768571D01*
D10*
X45182284Y-4720952D02*
X45134668Y-4768571D01*
D10*
X44563240Y-4816190D02*
X44229904Y-4816190D01*
D10*
X46325144Y-3911428D02*
X46277524Y-3911428D01*
D10*
X46372760Y-3816190D02*
X46325144Y-3911428D01*
D10*
X46325144Y-4101904D02*
X46372760Y-3816190D01*
D10*
X46325144Y-4006666D02*
X46325144Y-4101904D01*
D10*
X46277524Y-3911428D02*
X46325144Y-4006666D01*
D10*
X46229904Y-3863809D02*
X46277524Y-3911428D01*
D10*
X46087048Y-3816190D02*
X46229904Y-3863809D01*
D10*
X45896572Y-3816190D02*
X46087048Y-3816190D01*
D10*
X45753716Y-3863809D02*
X45896572Y-3816190D01*
D10*
X45658476Y-3959047D02*
X45753716Y-3863809D01*
D10*
X45658476Y-4054285D02*
X45658476Y-3959047D01*
D10*
X45706096Y-4149523D02*
X45658476Y-4054285D01*
D10*
X45753716Y-4197143D02*
X45706096Y-4149523D01*
D10*
X46087048Y-4387619D02*
X45753716Y-4197143D01*
D10*
X46182284Y-4482857D02*
X46087048Y-4387619D01*
D10*
X45753716Y-4149523D02*
X45658476Y-4054285D01*
D10*
X46087048Y-4340000D02*
X45753716Y-4149523D01*
D10*
X46134668Y-4387619D02*
X46087048Y-4340000D01*
D10*
X46182284Y-4482857D02*
X46134668Y-4387619D01*
D10*
X46182284Y-4625714D02*
X46182284Y-4482857D01*
D10*
X46134668Y-4720952D02*
X46182284Y-4625714D01*
D10*
X46087048Y-4768571D02*
X46134668Y-4720952D01*
D10*
X45944192Y-4816190D02*
X46087048Y-4768571D01*
D10*
X45753716Y-4816190D02*
X45944192Y-4816190D01*
D10*
X45610856Y-4768571D02*
X45753716Y-4816190D01*
D10*
X45563240Y-4720952D02*
X45610856Y-4768571D01*
D10*
X45515620Y-4625714D02*
X45563240Y-4720952D01*
D10*
X45515620Y-4530476D02*
X45515620Y-4625714D01*
D10*
X45468000Y-4816190D02*
X45515620Y-4530476D01*
D10*
X45515620Y-4720952D02*
X45468000Y-4816190D01*
D10*
X45563240Y-4720952D02*
X45515620Y-4720952D01*
D10*
X46801332Y-4816190D02*
X47087048Y-3816190D01*
D10*
X46848952Y-4816190D02*
X47134668Y-3816190D01*
D10*
X46658476Y-4101904D02*
X46801332Y-3816190D01*
D10*
X46753716Y-3816190D02*
X46658476Y-4101904D01*
D10*
X47468000Y-3816190D02*
X46753716Y-3816190D01*
D10*
X47420380Y-4101904D02*
X47468000Y-3816190D01*
D10*
X47420380Y-3816190D02*
X47420380Y-4101904D01*
D10*
X46991808Y-4816190D02*
X46658476Y-4816190D01*
D10*
X45039428Y-16611429D02*
X44991808Y-16611429D01*
D10*
X45087048Y-16516190D02*
X45039428Y-16611429D01*
D10*
X45039428Y-16801904D02*
X45087048Y-16516190D01*
D10*
X45039428Y-16706667D02*
X45039428Y-16801904D01*
D10*
X44991808Y-16611429D02*
X45039428Y-16706667D01*
D10*
X44944192Y-16563810D02*
X44991808Y-16611429D01*
D10*
X44848952Y-16516190D02*
X44944192Y-16563810D01*
D10*
X44706096Y-16516190D02*
X44848952Y-16516190D01*
D10*
X44563240Y-16563810D02*
X44706096Y-16516190D01*
D10*
X44468000Y-16659048D02*
X44563240Y-16563810D01*
D10*
X44372760Y-16801904D02*
X44468000Y-16659048D01*
D10*
X44325144Y-16944762D02*
X44372760Y-16801904D01*
D10*
X44277524Y-17135238D02*
X44325144Y-16944762D01*
D10*
X44277524Y-17278096D02*
X44277524Y-17135238D01*
D10*
X44325144Y-17420952D02*
X44277524Y-17278096D01*
D10*
X44372760Y-17468572D02*
X44325144Y-17420952D01*
D10*
X44515620Y-17516190D02*
X44372760Y-17468572D01*
D10*
X44610856Y-17516190D02*
X44515620Y-17516190D01*
D10*
X44753716Y-17468572D02*
X44610856Y-17516190D01*
D10*
X44848952Y-17373334D02*
X44753716Y-17468572D01*
D10*
X44944192Y-17182858D02*
X44848952Y-17373334D01*
D10*
X44610856Y-16563810D02*
X44706096Y-16516190D01*
D10*
X44515620Y-16659048D02*
X44610856Y-16563810D01*
D10*
X44420380Y-16801904D02*
X44515620Y-16659048D01*
D10*
X44372760Y-16944762D02*
X44420380Y-16801904D01*
D10*
X44325144Y-17135238D02*
X44372760Y-16944762D01*
D10*
X44325144Y-17278096D02*
X44325144Y-17135238D01*
D10*
X44372760Y-17420952D02*
X44325144Y-17278096D01*
D10*
X44420380Y-17468572D02*
X44372760Y-17420952D01*
D10*
X44515620Y-17516190D02*
X44420380Y-17468572D01*
D10*
X44706096Y-17468572D02*
X44610856Y-17516190D01*
D10*
X44801332Y-17373334D02*
X44706096Y-17468572D01*
D10*
X44896572Y-17182858D02*
X44801332Y-17373334D01*
D10*
X45087048Y-17182858D02*
X44753716Y-17182858D01*
D10*
X45325144Y-17516190D02*
X45610856Y-16516190D01*
D10*
X45944192Y-17373334D02*
X45610856Y-16516190D01*
D10*
X45944192Y-17516190D02*
X45610856Y-16659048D01*
D10*
X45944192Y-17516190D02*
X46229904Y-16516190D01*
D10*
X45610856Y-16516190D02*
X45468000Y-16516190D01*
D10*
X46372760Y-16516190D02*
X46087048Y-16516190D01*
D10*
X45468000Y-17516190D02*
X45182284Y-17516190D01*
D10*
X46515620Y-17516190D02*
X46801332Y-16516190D01*
D10*
X46563240Y-17516190D02*
X46848952Y-16516190D01*
D10*
X47087048Y-16516190D02*
X46658476Y-16516190D01*
D10*
X47229904Y-16563810D02*
X47087048Y-16516190D01*
D10*
X47277524Y-16611429D02*
X47229904Y-16563810D01*
D10*
X47325144Y-16754286D02*
X47277524Y-16611429D01*
D10*
X47325144Y-16944762D02*
X47325144Y-16754286D01*
D10*
X47277524Y-17135238D02*
X47325144Y-16944762D01*
D10*
X47182284Y-17325714D02*
X47277524Y-17135238D01*
D10*
X47087048Y-17420952D02*
X47182284Y-17325714D01*
D10*
X46991808Y-17468572D02*
X47087048Y-17420952D01*
D10*
X46801332Y-17516190D02*
X46991808Y-17468572D01*
D10*
X46372760Y-17516190D02*
X46801332Y-17516190D01*
D10*
X47182284Y-16563810D02*
X47087048Y-16516190D01*
D10*
X47229904Y-16611429D02*
X47182284Y-16563810D01*
D10*
X47277524Y-16754286D02*
X47229904Y-16611429D01*
D10*
X47277524Y-16944762D02*
X47277524Y-16754286D01*
D10*
X47229904Y-17135238D02*
X47277524Y-16944762D01*
D10*
X47134668Y-17325714D02*
X47229904Y-17135238D01*
D10*
X47039428Y-17420952D02*
X47134668Y-17325714D01*
D10*
X46944192Y-17468572D02*
X47039428Y-17420952D01*
D10*
X46801332Y-17516190D02*
X46944192Y-17468572D01*
D10*
X54690476Y23738096D02*
X54785716Y24023810D01*
D10*
X55357144Y23880952D02*
X55404760Y24023810D01*
D10*
X55261904Y23738096D02*
X55357144Y23880952D01*
D10*
X55023808Y23452380D02*
X55261904Y23738096D01*
D10*
X54928572Y23309524D02*
X55023808Y23452380D01*
D10*
X54880952Y23214286D02*
X54928572Y23309524D01*
D10*
X54833332Y23023810D02*
X54880952Y23214286D01*
D10*
X54976192Y23452380D02*
X55261904Y23738096D01*
D10*
X54880952Y23309524D02*
X54976192Y23452380D01*
D10*
X54833332Y23214286D02*
X54880952Y23309524D01*
D10*
X54785716Y23023810D02*
X54833332Y23214286D01*
D10*
X54880952Y24023810D02*
X54738096Y23880952D01*
D10*
X54976192Y24023810D02*
X54880952Y24023810D01*
D10*
X55214284Y23880952D02*
X54976192Y24023810D01*
D10*
X54880952Y23976190D02*
X54785716Y23928572D01*
D10*
X54976192Y23976190D02*
X54880952Y23976190D01*
D10*
X55214284Y23880952D02*
X54976192Y23976190D01*
D10*
X55309524Y23880952D02*
X55214284Y23880952D01*
D10*
X55357144Y23928572D02*
X55309524Y23880952D01*
D10*
X55404760Y24023810D02*
X55357144Y23928572D01*
D10*
X55880952Y23785714D02*
X55833332Y23833334D01*
D10*
X55833332Y23738096D02*
X55880952Y23785714D01*
D10*
X55785716Y23785714D02*
X55833332Y23738096D01*
D10*
X55785716Y23833334D02*
X55785716Y23785714D01*
D10*
X55833332Y23928572D02*
X55785716Y23833334D01*
D10*
X55880952Y23976190D02*
X55833332Y23928572D01*
D10*
X56023808Y24023810D02*
X55880952Y23976190D01*
D10*
X56166668Y24023810D02*
X56023808Y24023810D01*
D10*
X56309524Y23976190D02*
X56166668Y24023810D01*
D10*
X56357144Y23880952D02*
X56309524Y23976190D01*
D10*
X56357144Y23785714D02*
X56357144Y23880952D01*
D10*
X56309524Y23690476D02*
X56357144Y23785714D01*
D10*
X56166668Y23595238D02*
X56309524Y23690476D01*
D10*
X56023808Y23547620D02*
X56166668Y23595238D01*
D10*
X56261904Y23976190D02*
X56166668Y24023810D01*
D10*
X56309524Y23880952D02*
X56261904Y23976190D01*
D10*
X56309524Y23785714D02*
X56309524Y23880952D01*
D10*
X56261904Y23690476D02*
X56309524Y23785714D01*
D10*
X56166668Y23595238D02*
X56261904Y23690476D01*
D10*
X56023808Y23547620D02*
X55928572Y23547620D01*
D10*
X56166668Y23500000D02*
X56023808Y23547620D01*
D10*
X56214284Y23452380D02*
X56166668Y23500000D01*
D10*
X56261904Y23357142D02*
X56214284Y23452380D01*
D10*
X56261904Y23214286D02*
X56261904Y23357142D01*
D10*
X56214284Y23119048D02*
X56261904Y23214286D01*
D10*
X56166668Y23071428D02*
X56214284Y23119048D01*
D10*
X56023808Y23023810D02*
X56166668Y23071428D01*
D10*
X55833332Y23023810D02*
X56023808Y23023810D01*
D10*
X55690476Y23071428D02*
X55833332Y23023810D01*
D10*
X55642856Y23119048D02*
X55690476Y23071428D01*
D10*
X55595240Y23214286D02*
X55642856Y23119048D01*
D10*
X55595240Y23261904D02*
X55595240Y23214286D01*
D10*
X55642856Y23309524D02*
X55595240Y23261904D01*
D10*
X55690476Y23261904D02*
X55642856Y23309524D01*
D10*
X55642856Y23214286D02*
X55690476Y23261904D01*
D10*
X56119048Y23500000D02*
X56023808Y23547620D01*
D10*
X56166668Y23452380D02*
X56119048Y23500000D01*
D10*
X56214284Y23357142D02*
X56166668Y23452380D01*
D10*
X56214284Y23214286D02*
X56214284Y23357142D01*
D10*
X56166668Y23119048D02*
X56214284Y23214286D01*
D10*
X56119048Y23071428D02*
X56166668Y23119048D01*
D10*
X56023808Y23023810D02*
X56119048Y23071428D01*
D10*
X56880952Y23785714D02*
X56833332Y23833334D01*
D10*
X56833332Y23738096D02*
X56880952Y23785714D01*
D10*
X56785716Y23785714D02*
X56833332Y23738096D01*
D10*
X56785716Y23833334D02*
X56785716Y23785714D01*
D10*
X56833332Y23928572D02*
X56785716Y23833334D01*
D10*
X56880952Y23976190D02*
X56833332Y23928572D01*
D10*
X57023808Y24023810D02*
X56880952Y23976190D01*
D10*
X57166668Y24023810D02*
X57023808Y24023810D01*
D10*
X57309524Y23976190D02*
X57166668Y24023810D01*
D10*
X57357144Y23880952D02*
X57309524Y23976190D01*
D10*
X57357144Y23785714D02*
X57357144Y23880952D01*
D10*
X57309524Y23690476D02*
X57357144Y23785714D01*
D10*
X57166668Y23595238D02*
X57309524Y23690476D01*
D10*
X57023808Y23547620D02*
X57166668Y23595238D01*
D10*
X57261904Y23976190D02*
X57166668Y24023810D01*
D10*
X57309524Y23880952D02*
X57261904Y23976190D01*
D10*
X57309524Y23785714D02*
X57309524Y23880952D01*
D10*
X57261904Y23690476D02*
X57309524Y23785714D01*
D10*
X57166668Y23595238D02*
X57261904Y23690476D01*
D10*
X57023808Y23547620D02*
X56928572Y23547620D01*
D10*
X57166668Y23500000D02*
X57023808Y23547620D01*
D10*
X57214284Y23452380D02*
X57166668Y23500000D01*
D10*
X57261904Y23357142D02*
X57214284Y23452380D01*
D10*
X57261904Y23214286D02*
X57261904Y23357142D01*
D10*
X57214284Y23119048D02*
X57261904Y23214286D01*
D10*
X57166668Y23071428D02*
X57214284Y23119048D01*
D10*
X57023808Y23023810D02*
X57166668Y23071428D01*
D10*
X56833332Y23023810D02*
X57023808Y23023810D01*
D10*
X56690476Y23071428D02*
X56833332Y23023810D01*
D10*
X56642856Y23119048D02*
X56690476Y23071428D01*
D10*
X56595240Y23214286D02*
X56642856Y23119048D01*
D10*
X56595240Y23261904D02*
X56595240Y23214286D01*
D10*
X56642856Y23309524D02*
X56595240Y23261904D01*
D10*
X56690476Y23261904D02*
X56642856Y23309524D01*
D10*
X56642856Y23214286D02*
X56690476Y23261904D01*
D10*
X57119048Y23500000D02*
X57023808Y23547620D01*
D10*
X57166668Y23452380D02*
X57119048Y23500000D01*
D10*
X57214284Y23357142D02*
X57166668Y23452380D01*
D10*
X57214284Y23214286D02*
X57214284Y23357142D01*
D10*
X57166668Y23119048D02*
X57214284Y23214286D01*
D10*
X57119048Y23071428D02*
X57166668Y23119048D01*
D10*
X57023808Y23023810D02*
X57119048Y23071428D01*
D10*
X57976192Y23023810D02*
X58261904Y23976190D01*
D10*
X58023808Y23023810D02*
X58309524Y24023810D01*
D10*
X57595240Y23309524D02*
X58309524Y24023810D01*
D10*
X58357144Y23309524D02*
X57595240Y23309524D01*
D10*
X58642856Y23023810D02*
X58928572Y24023810D01*
D10*
X58690476Y23023810D02*
X58976192Y24023810D01*
D10*
X59119048Y24023810D02*
X58785712Y24023810D01*
D10*
X59214284Y23023810D02*
X58500000Y23023810D01*
D10*
X59309524Y23309524D02*
X59214284Y23023810D01*
D10*
X59166668Y23023810D02*
X59309524Y23309524D01*
D10*
X59833332Y23785714D02*
X59785712Y23833334D01*
D10*
X59785712Y23738096D02*
X59833332Y23785714D01*
D10*
X59738096Y23785714D02*
X59785712Y23738096D01*
D10*
X59738096Y23833334D02*
X59738096Y23785714D01*
D10*
X59785712Y23928572D02*
X59738096Y23833334D01*
D10*
X59833332Y23976190D02*
X59785712Y23928572D01*
D10*
X59976192Y24023810D02*
X59833332Y23976190D01*
D10*
X60119048Y24023810D02*
X59976192Y24023810D01*
D10*
X60261904Y23976190D02*
X60119048Y24023810D01*
D10*
X60309524Y23880952D02*
X60261904Y23976190D01*
D10*
X60309524Y23785714D02*
X60309524Y23880952D01*
D10*
X60261904Y23690476D02*
X60309524Y23785714D01*
D10*
X60166668Y23595238D02*
X60261904Y23690476D01*
D10*
X60023808Y23500000D02*
X60166668Y23595238D01*
D10*
X59833332Y23404762D02*
X60023808Y23500000D01*
D10*
X59690476Y23309524D02*
X59833332Y23404762D01*
D10*
X59595240Y23214286D02*
X59690476Y23309524D01*
D10*
X59500000Y23023810D02*
X59595240Y23214286D01*
D10*
X60214284Y23976190D02*
X60119048Y24023810D01*
D10*
X60261904Y23880952D02*
X60214284Y23976190D01*
D10*
X60261904Y23785714D02*
X60261904Y23880952D01*
D10*
X60214284Y23690476D02*
X60261904Y23785714D01*
D10*
X60119048Y23595238D02*
X60214284Y23690476D01*
D10*
X59833332Y23404762D02*
X60119048Y23595238D01*
D10*
X59595240Y23166666D02*
X59547620Y23119048D01*
D10*
X59690476Y23166666D02*
X59595240Y23166666D01*
D10*
X59928572Y23071428D02*
X59690476Y23166666D01*
D10*
X60071428Y23071428D02*
X59928572Y23071428D01*
D10*
X60166668Y23119048D02*
X60071428Y23071428D01*
D10*
X60214284Y23214286D02*
X60166668Y23119048D01*
D10*
X59928572Y23023810D02*
X59690476Y23166666D01*
D10*
X60071428Y23023810D02*
X59928572Y23023810D01*
D10*
X60166668Y23071428D02*
X60071428Y23023810D01*
D10*
X60214284Y23214286D02*
X60166668Y23071428D01*
D10*
X61214284Y23833334D02*
X61261904Y23880952D01*
D10*
X61261904Y23785714D02*
X61214284Y23833334D01*
D10*
X61309524Y23833334D02*
X61261904Y23785714D01*
D10*
X61309524Y23880952D02*
X61309524Y23833334D01*
D10*
X61261904Y23976190D02*
X61309524Y23880952D01*
D10*
X61166668Y24023810D02*
X61261904Y23976190D01*
D10*
X61023808Y24023810D02*
X61166668Y24023810D01*
D10*
X60880952Y23976190D02*
X61023808Y24023810D01*
D10*
X60785712Y23880952D02*
X60880952Y23976190D01*
D10*
X60690476Y23738096D02*
X60785712Y23880952D01*
D10*
X60642856Y23595238D02*
X60690476Y23738096D01*
D10*
X60595240Y23404762D02*
X60642856Y23595238D01*
D10*
X60595240Y23214286D02*
X60595240Y23404762D01*
D10*
X60642856Y23119048D02*
X60595240Y23214286D01*
D10*
X60690476Y23071428D02*
X60642856Y23119048D01*
D10*
X60785712Y23023810D02*
X60690476Y23071428D01*
D10*
X60928572Y23023810D02*
X60785712Y23023810D01*
D10*
X61071428Y23071428D02*
X60928572Y23023810D01*
D10*
X61166668Y23166666D02*
X61071428Y23071428D01*
D10*
X61214284Y23261904D02*
X61166668Y23166666D01*
D10*
X61214284Y23404762D02*
X61214284Y23261904D01*
D10*
X61166668Y23500000D02*
X61214284Y23404762D01*
D10*
X61119048Y23547620D02*
X61166668Y23500000D01*
D10*
X61023808Y23595238D02*
X61119048Y23547620D01*
D10*
X60880952Y23595238D02*
X61023808Y23595238D01*
D10*
X60785712Y23547620D02*
X60880952Y23595238D01*
D10*
X60690476Y23452380D02*
X60785712Y23547620D01*
D10*
X60642856Y23357142D02*
X60690476Y23452380D01*
D10*
X60928572Y23976190D02*
X61023808Y24023810D01*
D10*
X60833332Y23880952D02*
X60928572Y23976190D01*
D10*
X60738096Y23738096D02*
X60833332Y23880952D01*
D10*
X60690476Y23595238D02*
X60738096Y23738096D01*
D10*
X60642856Y23404762D02*
X60690476Y23595238D01*
D10*
X60642856Y23166666D02*
X60642856Y23404762D01*
D10*
X60690476Y23071428D02*
X60642856Y23166666D01*
D10*
X61023808Y23071428D02*
X60928572Y23023810D01*
D10*
X61119048Y23166666D02*
X61023808Y23071428D01*
D10*
X61166668Y23261904D02*
X61119048Y23166666D01*
D10*
X61166668Y23452380D02*
X61166668Y23261904D01*
D10*
X61119048Y23547620D02*
X61166668Y23452380D01*
D10*
X61833332Y23785714D02*
X61785712Y23833334D01*
D10*
X61785712Y23738096D02*
X61833332Y23785714D01*
D10*
X61738096Y23785714D02*
X61785712Y23738096D01*
D10*
X61738096Y23833334D02*
X61738096Y23785714D01*
D10*
X61785712Y23928572D02*
X61738096Y23833334D01*
D10*
X61833332Y23976190D02*
X61785712Y23928572D01*
D10*
X61976192Y24023810D02*
X61833332Y23976190D01*
D10*
X62119048Y24023810D02*
X61976192Y24023810D01*
D10*
X62261904Y23976190D02*
X62119048Y24023810D01*
D10*
X62309524Y23880952D02*
X62261904Y23976190D01*
D10*
X62309524Y23785714D02*
X62309524Y23880952D01*
D10*
X62261904Y23690476D02*
X62309524Y23785714D01*
D10*
X62166668Y23595238D02*
X62261904Y23690476D01*
D10*
X62023808Y23500000D02*
X62166668Y23595238D01*
D10*
X61833332Y23404762D02*
X62023808Y23500000D01*
D10*
X61690476Y23309524D02*
X61833332Y23404762D01*
D10*
X61595240Y23214286D02*
X61690476Y23309524D01*
D10*
X61500000Y23023810D02*
X61595240Y23214286D01*
D10*
X62214284Y23976190D02*
X62119048Y24023810D01*
D10*
X62261904Y23880952D02*
X62214284Y23976190D01*
D10*
X62261904Y23785714D02*
X62261904Y23880952D01*
D10*
X62214284Y23690476D02*
X62261904Y23785714D01*
D10*
X62119048Y23595238D02*
X62214284Y23690476D01*
D10*
X61833332Y23404762D02*
X62119048Y23595238D01*
D10*
X61595240Y23166666D02*
X61547620Y23119048D01*
D10*
X61690476Y23166666D02*
X61595240Y23166666D01*
D10*
X61928572Y23071428D02*
X61690476Y23166666D01*
D10*
X62071428Y23071428D02*
X61928572Y23071428D01*
D10*
X62166668Y23119048D02*
X62071428Y23071428D01*
D10*
X62214284Y23214286D02*
X62166668Y23119048D01*
D10*
X61928572Y23023810D02*
X61690476Y23166666D01*
D10*
X62071428Y23023810D02*
X61928572Y23023810D01*
D10*
X62166668Y23071428D02*
X62071428Y23023810D01*
D10*
X62214284Y23214286D02*
X62166668Y23071428D01*
D10*
X62833332Y23785714D02*
X62785712Y23833334D01*
D10*
X62785712Y23738096D02*
X62833332Y23785714D01*
D10*
X62738096Y23785714D02*
X62785712Y23738096D01*
D10*
X62738096Y23833334D02*
X62738096Y23785714D01*
D10*
X62785712Y23928572D02*
X62738096Y23833334D01*
D10*
X62833332Y23976190D02*
X62785712Y23928572D01*
D10*
X62976192Y24023810D02*
X62833332Y23976190D01*
D10*
X63119048Y24023810D02*
X62976192Y24023810D01*
D10*
X63261904Y23976190D02*
X63119048Y24023810D01*
D10*
X63309524Y23880952D02*
X63261904Y23976190D01*
D10*
X63309524Y23785714D02*
X63309524Y23880952D01*
D10*
X63261904Y23690476D02*
X63309524Y23785714D01*
D10*
X63166668Y23595238D02*
X63261904Y23690476D01*
D10*
X63023808Y23500000D02*
X63166668Y23595238D01*
D10*
X62833332Y23404762D02*
X63023808Y23500000D01*
D10*
X62690476Y23309524D02*
X62833332Y23404762D01*
D10*
X62595240Y23214286D02*
X62690476Y23309524D01*
D10*
X62500000Y23023810D02*
X62595240Y23214286D01*
D10*
X63214288Y23976190D02*
X63119048Y24023810D01*
D10*
X63261904Y23880952D02*
X63214288Y23976190D01*
D10*
X63261904Y23785714D02*
X63261904Y23880952D01*
D10*
X63214288Y23690476D02*
X63261904Y23785714D01*
D10*
X63119048Y23595238D02*
X63214288Y23690476D01*
D10*
X62833332Y23404762D02*
X63119048Y23595238D01*
D10*
X62595240Y23166666D02*
X62547620Y23119048D01*
D10*
X62690476Y23166666D02*
X62595240Y23166666D01*
D10*
X62928572Y23071428D02*
X62690476Y23166666D01*
D10*
X63071428Y23071428D02*
X62928572Y23071428D01*
D10*
X63166668Y23119048D02*
X63071428Y23071428D01*
D10*
X63214288Y23214286D02*
X63166668Y23119048D01*
D10*
X62928572Y23023810D02*
X62690476Y23166666D01*
D10*
X63071428Y23023810D02*
X62928572Y23023810D01*
D10*
X63166668Y23071428D02*
X63071428Y23023810D01*
D10*
X63214288Y23214286D02*
X63166668Y23071428D01*
D10*
X63595240Y23023810D02*
X63880952Y24023810D01*
D10*
X63642856Y23023810D02*
X63928572Y24023810D01*
D10*
X64023808Y23357142D02*
X64119048Y23738096D01*
D10*
X64452380Y24023810D02*
X63738096Y24023810D01*
D10*
X64404760Y23738096D02*
X64452380Y24023810D01*
D10*
X64404760Y24023810D02*
X64404760Y23738096D01*
D10*
X64071428Y23547620D02*
X63785712Y23547620D01*
D10*
X63785712Y23023810D02*
X63452380Y23023810D01*
D10*
X64928572Y23976190D02*
X65071428Y24023810D01*
D10*
X64833332Y23880952D02*
X64928572Y23976190D01*
D10*
X64738096Y23738096D02*
X64833332Y23880952D01*
D10*
X64690476Y23595238D02*
X64738096Y23738096D01*
D10*
X64642856Y23404762D02*
X64690476Y23595238D01*
D10*
X64642856Y23261904D02*
X64642856Y23404762D01*
D10*
X64690476Y23119048D02*
X64642856Y23261904D01*
D10*
X64738096Y23071428D02*
X64690476Y23119048D01*
D10*
X64833332Y23023810D02*
X64738096Y23071428D01*
D10*
X64928572Y23023810D02*
X64833332Y23023810D01*
D10*
X65071428Y23071428D02*
X64928572Y23023810D01*
D10*
X65166664Y23166666D02*
X65071428Y23071428D01*
D10*
X65261904Y23309524D02*
X65166664Y23166666D01*
D10*
X65309524Y23452380D02*
X65261904Y23309524D01*
D10*
X65357144Y23642858D02*
X65309524Y23452380D01*
D10*
X65357144Y23785714D02*
X65357144Y23642858D01*
D10*
X65309524Y23928572D02*
X65357144Y23785714D01*
D10*
X65261904Y23976190D02*
X65309524Y23928572D01*
D10*
X65166664Y24023810D02*
X65261904Y23976190D01*
D10*
X65071428Y24023810D02*
X65166664Y24023810D01*
D10*
X64976192Y23976190D02*
X65071428Y24023810D01*
D10*
X64880952Y23880952D02*
X64976192Y23976190D01*
D10*
X64785712Y23738096D02*
X64880952Y23880952D01*
D10*
X64738096Y23595238D02*
X64785712Y23738096D01*
D10*
X64690476Y23404762D02*
X64738096Y23595238D01*
D10*
X64690476Y23261904D02*
X64690476Y23404762D01*
D10*
X64738096Y23119048D02*
X64690476Y23261904D01*
D10*
X64833332Y23023810D02*
X64738096Y23119048D01*
D10*
X65023808Y23071428D02*
X64928572Y23023810D01*
D10*
X65119048Y23166666D02*
X65023808Y23071428D01*
D10*
X65214288Y23309524D02*
X65119048Y23166666D01*
D10*
X65261904Y23452380D02*
X65214288Y23309524D01*
D10*
X65309524Y23642858D02*
X65261904Y23452380D01*
D10*
X65309524Y23785714D02*
X65309524Y23642858D01*
D10*
X65261904Y23928572D02*
X65309524Y23785714D01*
D10*
X65166664Y24023810D02*
X65261904Y23928572D01*
D10*
X65833332Y23023810D02*
X66071428Y23833334D01*
D10*
X65880952Y23023810D02*
X66166664Y24023810D01*
D10*
X66023808Y23880952D02*
X66166664Y24023810D01*
D10*
X65880952Y23785714D02*
X66023808Y23880952D01*
D10*
X65785712Y23738096D02*
X65880952Y23785714D01*
D10*
X65928572Y23785714D02*
X66119048Y23880952D01*
D10*
X65785712Y23738096D02*
X65928572Y23785714D01*
D10*
X66642856Y23023810D02*
X66928572Y24023810D01*
D10*
X66690476Y23023810D02*
X66976192Y24023810D01*
D10*
X67119048Y24023810D02*
X66785712Y24023810D01*
D10*
X67214288Y23023810D02*
X66500000Y23023810D01*
D10*
X67309520Y23309524D02*
X67214288Y23023810D01*
D10*
X67166664Y23023810D02*
X67309520Y23309524D01*
D10*
X67595240Y23023810D02*
X67880952Y24023810D01*
D10*
X67642856Y23023810D02*
X67928568Y24023810D01*
D10*
X68023808Y23357142D02*
X68119048Y23738096D01*
D10*
X68452384Y24023810D02*
X67738096Y24023810D01*
D10*
X68404760Y23738096D02*
X68452384Y24023810D01*
D10*
X68404760Y24023810D02*
X68404760Y23738096D01*
D10*
X68071424Y23547620D02*
X67785712Y23547620D01*
D10*
X67785712Y23023810D02*
X67452384Y23023810D01*
D10*
X44658476Y-14976190D02*
X44610856Y-13976190D01*
D10*
X44706096Y-14880952D02*
X44658476Y-13976190D01*
D10*
X44658476Y-14976190D02*
X45277524Y-13976190D01*
D10*
X44801332Y-13976190D02*
X44515620Y-13976190D01*
D10*
X45372760Y-13976190D02*
X45087048Y-13976190D01*
D10*
X45420380Y-14976190D02*
X45706096Y-13976190D01*
D10*
X45468000Y-14976190D02*
X45753716Y-13976190D01*
D10*
X46134668Y-13976190D02*
X45563240Y-13976190D01*
D10*
X46277524Y-14023810D02*
X46134668Y-13976190D01*
D10*
X46325144Y-14119048D02*
X46277524Y-14023810D01*
D10*
X46325144Y-14214286D02*
X46325144Y-14119048D01*
D10*
X46277524Y-14357143D02*
X46325144Y-14214286D01*
D10*
X46182284Y-14452381D02*
X46277524Y-14357143D01*
D10*
X45991808Y-14500000D02*
X46182284Y-14452381D01*
D10*
X45610856Y-14500000D02*
X45991808Y-14500000D01*
D10*
X46229904Y-14023810D02*
X46134668Y-13976190D01*
D10*
X46277524Y-14119048D02*
X46229904Y-14023810D01*
D10*
X46277524Y-14214286D02*
X46277524Y-14119048D01*
D10*
X46229904Y-14357143D02*
X46277524Y-14214286D01*
D10*
X46134668Y-14452381D02*
X46229904Y-14357143D01*
D10*
X45991808Y-14500000D02*
X46134668Y-14452381D01*
D10*
X45610856Y-14976190D02*
X45277524Y-14976190D01*
D10*
X46515620Y-14976190D02*
X46801332Y-13976190D01*
D10*
X46563240Y-14976190D02*
X46848952Y-13976190D01*
D10*
X47229904Y-13976190D02*
X46658476Y-13976190D01*
D10*
X47372760Y-14023810D02*
X47229904Y-13976190D01*
D10*
X47420380Y-14119048D02*
X47372760Y-14023810D01*
D10*
X47420380Y-14214286D02*
X47420380Y-14119048D01*
D10*
X47372760Y-14357143D02*
X47420380Y-14214286D01*
D10*
X47277524Y-14452381D02*
X47372760Y-14357143D01*
D10*
X47087048Y-14500000D02*
X47277524Y-14452381D01*
D10*
X46706096Y-14500000D02*
X47087048Y-14500000D01*
D10*
X47325144Y-14023810D02*
X47229904Y-13976190D01*
D10*
X47372760Y-14119048D02*
X47325144Y-14023810D01*
D10*
X47372760Y-14214286D02*
X47372760Y-14119048D01*
D10*
X47325144Y-14357143D02*
X47372760Y-14214286D01*
D10*
X47229904Y-14452381D02*
X47325144Y-14357143D01*
D10*
X47087048Y-14500000D02*
X47229904Y-14452381D01*
D10*
X46706096Y-14976190D02*
X46372760Y-14976190D01*
D10*
X45944192Y-12436190D02*
X46229904Y-11436190D01*
D10*
X45991808Y-12436190D02*
X46277524Y-11436190D01*
D10*
X46420380Y-11436190D02*
X46087048Y-11436190D01*
D10*
X46134668Y-12436190D02*
X45801332Y-12436190D01*
D10*
X46848952Y-11483810D02*
X46991808Y-11436190D01*
D10*
X46753716Y-11579048D02*
X46848952Y-11483810D01*
D10*
X46658476Y-11721905D02*
X46753716Y-11579048D01*
D10*
X46610856Y-11864762D02*
X46658476Y-11721905D01*
D10*
X46563240Y-12055238D02*
X46610856Y-11864762D01*
D10*
X46563240Y-12198095D02*
X46563240Y-12055238D01*
D10*
X46610856Y-12340952D02*
X46563240Y-12198095D01*
D10*
X46658476Y-12388571D02*
X46610856Y-12340952D01*
D10*
X46753716Y-12436190D02*
X46658476Y-12388571D01*
D10*
X46896572Y-12436190D02*
X46753716Y-12436190D01*
D10*
X47039428Y-12388571D02*
X46896572Y-12436190D01*
D10*
X47134668Y-12293333D02*
X47039428Y-12388571D01*
D10*
X47229904Y-12150476D02*
X47134668Y-12293333D01*
D10*
X47277524Y-12007619D02*
X47229904Y-12150476D01*
D10*
X47325144Y-11817143D02*
X47277524Y-12007619D01*
D10*
X47325144Y-11674286D02*
X47325144Y-11817143D01*
D10*
X47277524Y-11531429D02*
X47325144Y-11674286D01*
D10*
X47229904Y-11483810D02*
X47277524Y-11531429D01*
D10*
X47134668Y-11436190D02*
X47229904Y-11483810D01*
D10*
X46991808Y-11436190D02*
X47134668Y-11436190D01*
D10*
X46896572Y-11483810D02*
X46991808Y-11436190D01*
D10*
X46801332Y-11579048D02*
X46896572Y-11483810D01*
D10*
X46706096Y-11721905D02*
X46801332Y-11579048D01*
D10*
X46658476Y-11864762D02*
X46706096Y-11721905D01*
D10*
X46610856Y-12055238D02*
X46658476Y-11864762D01*
D10*
X46610856Y-12198095D02*
X46610856Y-12055238D01*
D10*
X46658476Y-12340952D02*
X46610856Y-12198095D01*
D10*
X46753716Y-12436190D02*
X46658476Y-12340952D01*
D10*
X46991808Y-12388571D02*
X46896572Y-12436190D01*
D10*
X47087048Y-12293333D02*
X46991808Y-12388571D01*
D10*
X47182284Y-12150476D02*
X47087048Y-12293333D01*
D10*
X47229904Y-12007619D02*
X47182284Y-12150476D01*
D10*
X47277524Y-11817143D02*
X47229904Y-12007619D01*
D10*
X47277524Y-11674286D02*
X47277524Y-11817143D01*
D10*
X47229904Y-11531429D02*
X47277524Y-11674286D01*
D10*
X47134668Y-11436190D02*
X47229904Y-11531429D01*
D10*
X83250000Y8083333D02*
X83250000Y8000000D01*
D10*
X83083336Y8166667D02*
X83250000Y8083333D01*
D10*
X83583336Y8083333D02*
X83083336Y8166667D01*
D10*
X83416664Y8083333D02*
X83583336Y8083333D01*
D10*
X83250000Y8000000D02*
X83416664Y8083333D01*
D10*
X83166664Y7916667D02*
X83250000Y8000000D01*
D10*
X83083336Y7750000D02*
X83166664Y7916667D01*
D10*
X83083336Y7500000D02*
X83083336Y7750000D01*
D10*
X83166664Y7250000D02*
X83083336Y7500000D01*
D10*
X83333336Y7083333D02*
X83166664Y7250000D01*
D10*
X83583336Y6916666D02*
X83333336Y7083333D01*
D10*
X83833336Y6833333D02*
X83583336Y6916666D01*
D10*
X84166664Y6750000D02*
X83833336Y6833333D01*
D10*
X84416664Y6750000D02*
X84166664Y6750000D01*
D10*
X84666664Y6833333D02*
X84416664Y6750000D01*
D10*
X84750000Y6916666D02*
X84666664Y6833333D01*
D10*
X84833336Y7166666D02*
X84750000Y6916666D01*
D10*
X84833336Y7416666D02*
X84833336Y7166666D01*
D10*
X84750000Y7583333D02*
X84833336Y7416666D01*
D10*
X84583336Y7750000D02*
X84750000Y7583333D01*
D10*
X84416664Y7833333D02*
X84583336Y7750000D01*
D10*
X83166664Y7333333D02*
X83083336Y7500000D01*
D10*
X83333336Y7166666D02*
X83166664Y7333333D01*
D10*
X83583336Y7000000D02*
X83333336Y7166666D01*
D10*
X83833336Y6916666D02*
X83583336Y7000000D01*
D10*
X84166664Y6833333D02*
X83833336Y6916666D01*
D10*
X84416664Y6833333D02*
X84166664Y6833333D01*
D10*
X84666664Y6916666D02*
X84416664Y6833333D01*
D10*
X84750000Y7000000D02*
X84666664Y6916666D01*
D10*
X84833336Y7166666D02*
X84750000Y7000000D01*
D10*
X84833336Y8416667D02*
X83083336Y8916667D01*
D10*
X84833336Y8500000D02*
X83083336Y9000000D01*
D10*
X83916664Y8833334D02*
X84250000Y8666667D01*
D10*
X83750000Y9000000D02*
X83916664Y8833334D01*
D10*
X83666664Y9166667D02*
X83750000Y9000000D01*
D10*
X83666664Y9333334D02*
X83666664Y9166667D01*
D10*
X83750000Y9500000D02*
X83666664Y9333334D01*
D10*
X83833336Y9583334D02*
X83750000Y9500000D01*
D10*
X84000000Y9583334D02*
X83833336Y9583334D01*
D10*
X84500000Y9416667D02*
X84000000Y9583334D01*
D10*
X84750000Y9416667D02*
X84500000Y9416667D01*
D10*
X84833336Y9500000D02*
X84750000Y9416667D01*
D10*
X83833336Y9500000D02*
X83666664Y9333334D01*
D10*
X84000000Y9500000D02*
X83833336Y9500000D01*
D10*
X84500000Y9333334D02*
X84000000Y9500000D01*
D10*
X84750000Y9333334D02*
X84500000Y9333334D01*
D10*
X84833336Y9416667D02*
X84750000Y9333334D01*
D10*
X84833336Y9666667D02*
X84833336Y9416667D01*
D10*
X84666664Y9833334D02*
X84833336Y9666667D01*
D10*
X84500000Y9916667D02*
X84666664Y9833334D01*
D10*
X83083336Y9000000D02*
X83083336Y8666667D01*
D10*
X83166664Y10666667D02*
X83083336Y10750000D01*
D10*
X83250000Y10750000D02*
X83166664Y10666667D01*
D10*
X83166664Y10833334D02*
X83250000Y10750000D01*
D10*
X83083336Y10750000D02*
X83166664Y10833334D01*
D10*
X83833336Y10166667D02*
X84000000Y10083334D01*
D10*
X83666664Y10333334D02*
X83833336Y10166667D01*
D10*
X83666664Y10583334D02*
X83666664Y10333334D01*
D10*
X83750000Y10666667D02*
X83666664Y10583334D01*
D10*
X84000000Y10666667D02*
X83750000Y10666667D01*
D10*
X84500000Y10500000D02*
X84000000Y10666667D01*
D10*
X84750000Y10500000D02*
X84500000Y10500000D01*
D10*
X84833336Y10583334D02*
X84750000Y10500000D01*
D10*
X83750000Y10583334D02*
X83666664Y10500000D01*
D10*
X84000000Y10583334D02*
X83750000Y10583334D01*
D10*
X84500000Y10416667D02*
X84000000Y10583334D01*
D10*
X84750000Y10416667D02*
X84500000Y10416667D01*
D10*
X84833336Y10500000D02*
X84750000Y10416667D01*
D10*
X84833336Y10750000D02*
X84833336Y10500000D01*
D10*
X84666664Y10916667D02*
X84833336Y10750000D01*
D10*
X84500000Y11000000D02*
X84666664Y10916667D01*
D10*
X83833336Y11250000D02*
X84000000Y11166667D01*
D10*
X83666664Y11416667D02*
X83833336Y11250000D01*
D10*
X83666664Y11666667D02*
X83666664Y11416667D01*
D10*
X83750000Y11750000D02*
X83666664Y11666667D01*
D10*
X83916664Y11750000D02*
X83750000Y11750000D01*
D10*
X84250000Y11666667D02*
X83916664Y11750000D01*
D10*
X85416664Y11333334D02*
X84250000Y11666667D01*
D10*
X83750000Y11666667D02*
X83666664Y11583334D01*
D10*
X83916664Y11666667D02*
X83750000Y11666667D01*
D10*
X84250000Y11583334D02*
X83916664Y11666667D01*
D10*
X85416664Y11250000D02*
X84250000Y11583334D01*
D10*
X84000000Y11750000D02*
X84250000Y11666667D01*
D10*
X83750000Y11916667D02*
X84000000Y11750000D01*
D10*
X83666664Y12083334D02*
X83750000Y11916667D01*
D10*
X83666664Y12250000D02*
X83666664Y12083334D01*
D10*
X83750000Y12416667D02*
X83666664Y12250000D01*
D10*
X83833336Y12500000D02*
X83750000Y12416667D01*
D10*
X84000000Y12583334D02*
X83833336Y12500000D01*
D10*
X84250000Y12583334D02*
X84000000Y12583334D01*
D10*
X84500000Y12500000D02*
X84250000Y12583334D01*
D10*
X84750000Y12333334D02*
X84500000Y12500000D01*
D10*
X84833336Y12083334D02*
X84750000Y12333334D01*
D10*
X84833336Y11916667D02*
X84833336Y12083334D01*
D10*
X84750000Y11750000D02*
X84833336Y11916667D01*
D10*
X84500000Y11666667D02*
X84750000Y11750000D01*
D10*
X84250000Y11666667D02*
X84500000Y11666667D01*
D10*
X83916664Y12500000D02*
X83750000Y12416667D01*
D10*
X84250000Y12500000D02*
X83916664Y12500000D01*
D10*
X84500000Y12416667D02*
X84250000Y12500000D01*
D10*
X84750000Y12250000D02*
X84500000Y12416667D01*
D10*
X84833336Y12083334D02*
X84750000Y12250000D01*
D10*
X85416664Y11583334D02*
X85416664Y11000000D01*
D10*
X84250000Y14666667D02*
X83083336Y15000000D01*
D10*
X84583336Y14583334D02*
X84250000Y14666667D01*
D10*
X84750000Y14583334D02*
X84583336Y14583334D01*
D10*
X84833336Y14666667D02*
X84750000Y14583334D01*
D10*
X84833336Y14916667D02*
X84833336Y14666667D01*
D10*
X84666664Y15083334D02*
X84833336Y14916667D01*
D10*
X84500000Y15166667D02*
X84666664Y15083334D01*
D10*
X84250000Y14750000D02*
X83083336Y15083334D01*
D10*
X84583336Y14666667D02*
X84250000Y14750000D01*
D10*
X84750000Y14666667D02*
X84583336Y14666667D01*
D10*
X84833336Y14750000D02*
X84750000Y14666667D01*
D10*
X84000000Y14666667D02*
X84250000Y14666667D01*
D10*
X83750000Y14583334D02*
X84000000Y14666667D01*
D10*
X83666664Y14416667D02*
X83750000Y14583334D01*
D10*
X83666664Y14250000D02*
X83666664Y14416667D01*
D10*
X83750000Y14000000D02*
X83666664Y14250000D01*
D10*
X84000000Y13833334D02*
X83750000Y14000000D01*
D10*
X84250000Y13750000D02*
X84000000Y13833334D01*
D10*
X84500000Y13750000D02*
X84250000Y13750000D01*
D10*
X84666664Y13833334D02*
X84500000Y13750000D01*
D10*
X84750000Y13916667D02*
X84666664Y13833334D01*
D10*
X84833336Y14083334D02*
X84750000Y13916667D01*
D10*
X84833336Y14250000D02*
X84833336Y14083334D01*
D10*
X84750000Y14416667D02*
X84833336Y14250000D01*
D10*
X84500000Y14583334D02*
X84750000Y14416667D01*
D10*
X84250000Y14666667D02*
X84500000Y14583334D01*
D10*
X83750000Y14083334D02*
X83666664Y14250000D01*
D10*
X84000000Y13916667D02*
X83750000Y14083334D01*
D10*
X84250000Y13833334D02*
X84000000Y13916667D01*
D10*
X84583336Y13833334D02*
X84250000Y13833334D01*
D10*
X84750000Y13916667D02*
X84583336Y13833334D01*
D10*
X83083336Y15083334D02*
X83083336Y14750000D01*
D10*
X83750000Y15750000D02*
X83666664Y16000000D01*
D10*
X84000000Y15583334D02*
X83750000Y15750000D01*
D10*
X84250000Y15500000D02*
X84000000Y15583334D01*
D10*
X84500000Y15500000D02*
X84250000Y15500000D01*
D10*
X84666664Y15583334D02*
X84500000Y15500000D01*
D10*
X84750000Y15666667D02*
X84666664Y15583334D01*
D10*
X84833336Y15833334D02*
X84750000Y15666667D01*
D10*
X84833336Y16000000D02*
X84833336Y15833334D01*
D10*
X84750000Y16250000D02*
X84833336Y16000000D01*
D10*
X84500000Y16416667D02*
X84750000Y16250000D01*
D10*
X84250000Y16500000D02*
X84500000Y16416667D01*
D10*
X84000000Y16500000D02*
X84250000Y16500000D01*
D10*
X83833336Y16416667D02*
X84000000Y16500000D01*
D10*
X83750000Y16333334D02*
X83833336Y16416667D01*
D10*
X83666664Y16166667D02*
X83750000Y16333334D01*
D10*
X83666664Y16000000D02*
X83666664Y16166667D01*
D10*
X83750000Y15833334D02*
X83666664Y16000000D01*
D10*
X84000000Y15666667D02*
X83750000Y15833334D01*
D10*
X84250000Y15583334D02*
X84000000Y15666667D01*
D10*
X84583336Y15583334D02*
X84250000Y15583334D01*
D10*
X84750000Y15666667D02*
X84583336Y15583334D01*
D10*
X84750000Y16166667D02*
X84833336Y16000000D01*
D10*
X84500000Y16333334D02*
X84750000Y16166667D01*
D10*
X84250000Y16416667D02*
X84500000Y16333334D01*
D10*
X83916664Y16416667D02*
X84250000Y16416667D01*
D10*
X83750000Y16333334D02*
X83916664Y16416667D01*
D10*
X83833336Y16916668D02*
X84000000Y16833334D01*
D10*
X83666664Y17083334D02*
X83833336Y16916668D01*
D10*
X83666664Y17333334D02*
X83666664Y17083334D01*
D10*
X83750000Y17416668D02*
X83666664Y17333334D01*
D10*
X84000000Y17416668D02*
X83750000Y17416668D01*
D10*
X84500000Y17250000D02*
X84000000Y17416668D01*
D10*
X84666664Y17250000D02*
X84500000Y17250000D01*
D10*
X84833336Y17416668D02*
X84666664Y17250000D01*
D10*
X83750000Y17333334D02*
X83666664Y17250000D01*
D10*
X84000000Y17333334D02*
X83750000Y17333334D01*
D10*
X84500000Y17166668D02*
X84000000Y17333334D01*
D10*
X84666664Y17166668D02*
X84500000Y17166668D01*
D10*
X84750000Y17250000D02*
X84666664Y17166668D01*
D10*
X84833336Y17416668D02*
X84750000Y17250000D01*
D10*
X84833336Y17583334D02*
X84833336Y17416668D01*
D10*
X84750000Y17750000D02*
X84833336Y17583334D01*
D10*
X84583336Y17916668D02*
X84750000Y17750000D01*
D10*
X84416664Y18000000D02*
X84583336Y17916668D01*
D10*
X84416664Y18000000D02*
X83666664Y18166668D01*
D10*
X84666664Y18000000D02*
X84416664Y18000000D01*
D10*
X84750000Y18083334D02*
X84666664Y18000000D01*
D10*
X84833336Y18250000D02*
X84750000Y18083334D01*
D10*
X84833336Y18416668D02*
X84833336Y18250000D01*
D10*
X84750000Y18583334D02*
X84833336Y18416668D01*
D10*
X84583336Y18750000D02*
X84750000Y18583334D01*
D10*
X84416664Y18833334D02*
X84583336Y18750000D01*
D10*
X84083336Y18916668D02*
X84416664Y18833334D01*
D10*
X83666664Y18916668D02*
X84083336Y18916668D01*
D10*
X83666664Y18833334D02*
X83666664Y18916668D01*
D10*
X83833336Y18916668D02*
X83666664Y18833334D01*
D10*
X84416664Y18083334D02*
X83666664Y18250000D01*
D10*
X84666664Y18083334D02*
X84416664Y18083334D01*
D10*
X84833336Y18250000D02*
X84666664Y18083334D01*
D10*
X83833336Y19333334D02*
X84000000Y19250000D01*
D10*
X83666664Y19500000D02*
X83833336Y19333334D01*
D10*
X83666664Y19750000D02*
X83666664Y19500000D01*
D10*
X83750000Y19833334D02*
X83666664Y19750000D01*
D10*
X83916664Y19833334D02*
X83750000Y19833334D01*
D10*
X84250000Y19750000D02*
X83916664Y19833334D01*
D10*
X84833336Y19583334D02*
X84250000Y19750000D01*
D10*
X83750000Y19750000D02*
X83666664Y19666668D01*
D10*
X83916664Y19750000D02*
X83750000Y19750000D01*
D10*
X84250000Y19666668D02*
X83916664Y19750000D01*
D10*
X84833336Y19500000D02*
X84250000Y19666668D01*
D10*
X83916664Y19916668D02*
X84250000Y19750000D01*
D10*
X83750000Y20083334D02*
X83916664Y19916668D01*
D10*
X83666664Y20250000D02*
X83750000Y20083334D01*
D10*
X83666664Y20416668D02*
X83666664Y20250000D01*
D10*
X83750000Y20583334D02*
X83666664Y20416668D01*
D10*
X83833336Y20666668D02*
X83750000Y20583334D01*
D10*
X84000000Y20666668D02*
X83833336Y20666668D01*
D10*
X84500000Y20500000D02*
X84000000Y20666668D01*
D10*
X84750000Y20500000D02*
X84500000Y20500000D01*
D10*
X84833336Y20583334D02*
X84750000Y20500000D01*
D10*
X83833336Y20583334D02*
X83666664Y20416668D01*
D10*
X84000000Y20583334D02*
X83833336Y20583334D01*
D10*
X84500000Y20416668D02*
X84000000Y20583334D01*
D10*
X84750000Y20416668D02*
X84500000Y20416668D01*
D10*
X84833336Y20500000D02*
X84750000Y20416668D01*
D10*
X84833336Y20750000D02*
X84833336Y20500000D01*
D10*
X84666664Y20916668D02*
X84833336Y20750000D01*
D10*
X84500000Y21000000D02*
X84666664Y20916668D01*
D10*
X57144048Y28539286D02*
X57382144Y29348810D01*
D10*
X57096428Y28444048D02*
X57144048Y28539286D01*
D10*
X57048808Y28396428D02*
X57096428Y28444048D01*
D10*
X56953572Y28348810D02*
X57048808Y28396428D01*
D10*
X56858332Y28348810D02*
X56953572Y28348810D01*
D10*
X56763096Y28396428D02*
X56858332Y28348810D01*
D10*
X56715476Y28491666D02*
X56763096Y28396428D01*
D10*
X56715476Y28586904D02*
X56715476Y28491666D01*
D10*
X56763096Y28634524D02*
X56715476Y28586904D01*
D10*
X56810716Y28586904D02*
X56763096Y28634524D01*
D10*
X56763096Y28539286D02*
X56810716Y28586904D01*
D10*
X57096428Y28539286D02*
X57334524Y29348810D01*
D10*
X57048808Y28444048D02*
X57096428Y28539286D01*
D10*
X56953572Y28348810D02*
X57048808Y28444048D01*
D10*
X57525000Y29348810D02*
X57191668Y29348810D01*
D10*
X57905952Y29110714D02*
X57858332Y29158334D01*
D10*
X57858332Y29063096D02*
X57905952Y29110714D01*
D10*
X57810716Y29110714D02*
X57858332Y29063096D01*
D10*
X57810716Y29158334D02*
X57810716Y29110714D01*
D10*
X57858332Y29253572D02*
X57810716Y29158334D01*
D10*
X57905952Y29301190D02*
X57858332Y29253572D01*
D10*
X58048808Y29348810D02*
X57905952Y29301190D01*
D10*
X58191668Y29348810D02*
X58048808Y29348810D01*
D10*
X58334524Y29301190D02*
X58191668Y29348810D01*
D10*
X58382144Y29205952D02*
X58334524Y29301190D01*
D10*
X58382144Y29110714D02*
X58382144Y29205952D01*
D10*
X58334524Y29015476D02*
X58382144Y29110714D01*
D10*
X58239284Y28920238D02*
X58334524Y29015476D01*
D10*
X58096428Y28825000D02*
X58239284Y28920238D01*
D10*
X57905952Y28729762D02*
X58096428Y28825000D01*
D10*
X57763096Y28634524D02*
X57905952Y28729762D01*
D10*
X57667856Y28539286D02*
X57763096Y28634524D01*
D10*
X57572620Y28348810D02*
X57667856Y28539286D01*
D10*
X58286904Y29301190D02*
X58191668Y29348810D01*
D10*
X58334524Y29205952D02*
X58286904Y29301190D01*
D10*
X58334524Y29110714D02*
X58334524Y29205952D01*
D10*
X58286904Y29015476D02*
X58334524Y29110714D01*
D10*
X58191668Y28920238D02*
X58286904Y29015476D01*
D10*
X57905952Y28729762D02*
X58191668Y28920238D01*
D10*
X57667856Y28491666D02*
X57620240Y28444048D01*
D10*
X57763096Y28491666D02*
X57667856Y28491666D01*
D10*
X58001192Y28396428D02*
X57763096Y28491666D01*
D10*
X58144048Y28396428D02*
X58001192Y28396428D01*
D10*
X58239284Y28444048D02*
X58144048Y28396428D01*
D10*
X58286904Y28539286D02*
X58239284Y28444048D01*
D10*
X58001192Y28348810D02*
X57763096Y28491666D01*
D10*
X58144048Y28348810D02*
X58001192Y28348810D01*
D10*
X58239284Y28396428D02*
X58144048Y28348810D01*
D10*
X58286904Y28539286D02*
X58239284Y28396428D01*
D10*
X39070380Y1533809D02*
X39356096Y2533809D01*
D10*
X39689428Y1676666D02*
X39356096Y2533809D01*
D10*
X39689428Y1533809D02*
X39356096Y2390952D01*
D10*
X39689428Y1533809D02*
X39975144Y2533809D01*
D10*
X39356096Y2533809D02*
X39213240Y2533809D01*
D10*
X40118000Y2533809D02*
X39832284Y2533809D01*
D10*
X39213240Y1533809D02*
X38927524Y1533809D01*
D10*
X41022760Y2438571D02*
X40975144Y2438571D01*
D10*
X41070380Y2533809D02*
X41022760Y2438571D01*
D10*
X41022760Y2248095D02*
X41070380Y2533809D01*
D10*
X41022760Y2343333D02*
X41022760Y2248095D01*
D10*
X40975144Y2438571D02*
X41022760Y2343333D01*
D10*
X40927524Y2486190D02*
X40975144Y2438571D01*
D10*
X40832284Y2533809D02*
X40927524Y2486190D01*
D10*
X40689428Y2533809D02*
X40832284Y2533809D01*
D10*
X40546572Y2486190D02*
X40689428Y2533809D01*
D10*
X40451332Y2390952D02*
X40546572Y2486190D01*
D10*
X40356096Y2248095D02*
X40451332Y2390952D01*
D10*
X40308476Y2105238D02*
X40356096Y2248095D01*
D10*
X40260856Y1914761D02*
X40308476Y2105238D01*
D10*
X40260856Y1771904D02*
X40260856Y1914761D01*
D10*
X40308476Y1629047D02*
X40260856Y1771904D01*
D10*
X40356096Y1581428D02*
X40308476Y1629047D01*
D10*
X40498952Y1533809D02*
X40356096Y1581428D01*
D10*
X40641808Y1533809D02*
X40498952Y1533809D01*
D10*
X40737048Y1581428D02*
X40641808Y1533809D01*
D10*
X40832284Y1676666D02*
X40737048Y1581428D01*
D10*
X40879904Y1771904D02*
X40832284Y1676666D01*
D10*
X40594192Y2486190D02*
X40689428Y2533809D01*
D10*
X40498952Y2390952D02*
X40594192Y2486190D01*
D10*
X40403716Y2248095D02*
X40498952Y2390952D01*
D10*
X40356096Y2105238D02*
X40403716Y2248095D01*
D10*
X40308476Y1914761D02*
X40356096Y2105238D01*
D10*
X40308476Y1771904D02*
X40308476Y1914761D01*
D10*
X40356096Y1629047D02*
X40308476Y1771904D01*
D10*
X40403716Y1581428D02*
X40356096Y1629047D01*
D10*
X40498952Y1533809D02*
X40403716Y1581428D01*
D10*
X92000000Y31000000D02*
X92000000Y1900000D01*
D10*
X92000000Y-31000000D02*
X92000000Y-8100000D01*
D10*
X52000000Y5700000D02*
X52000000Y31000000D01*
D10*
X52000000Y-31000000D02*
X92000000Y-31000000D01*
D10*
X52000000Y-8100000D02*
X52000000Y-31000000D01*
D10*
X52000000Y31000000D02*
X92000000Y31000000D01*
D10*
X50770000Y7090000D02*
X50770000Y-18310000D01*
D10*
X48230000Y-18310000D02*
X48230000Y7090000D01*
D10*
X38033000Y3240000D02*
X41158000Y4490000D01*
D10*
X36158000Y3240000D02*
X36158000Y5740000D01*
D10*
X48230000Y7090000D02*
X50770000Y7090000D01*
D10*
X44908000Y3240000D02*
X42408000Y3240000D01*
D10*
X36158000Y5740000D02*
X44908000Y5740000D01*
D10*
X50770000Y-18310000D02*
X48230000Y-18310000D01*
D10*
X36158000Y3240000D02*
X37408000Y3240000D01*
G75*
D10*
G03*
X38033000Y3240000D02*
X37408000Y3240000I-312500J0D01*
D10*
G03*
X37408000Y3240000D02*
X38033000Y3240000I312500J0D01*
D10*
G03*
X42408000Y3240000D02*
X41783000Y3240000I-312500J0D01*
D10*
G03*
X41783000Y3240000D02*
X42408000Y3240000I312500J0D01*
M02*
