M48
FMAT,2
METRIC,TZ
T4C0.300
T1C1.000
T2C1.100
T3C3.300
%
G90
G05
M71
T4
X-35.500Y-0.710
X34.610Y-14.500
X-35.500Y4.370
X39.690Y-9.420
X-35.500Y6.910
X32.070Y-17.040
X37.150Y-11.960
X-35.500Y1.830
T1
X49.500Y-1.800
X49.500Y-9.420
X49.500Y-17.040
X49.500Y5.820
X49.500Y3.280
X49.500Y-4.340
X49.500Y-14.500
X49.500Y-11.960
X49.500Y0.740
X49.500Y-6.880
T2
X91.050Y-6.880
X91.050Y-1.800
X55.490Y4.550
X52.950Y0.740
X52.950Y4.550
X91.050Y0.740
X91.050Y-4.340
X52.950Y-1.800
X52.950Y-4.340
X52.950Y-6.880
T3
X62.000Y-29.000
X62.000Y29.000
X82.000Y29.000
X82.000Y-29.000
M30
